<svg width="794" height="741" viewBox="0 0 794 741" fill="none" xmlns="http://www.w3.org/2000/svg">
<g clip-path="url(#clip0_2040_3997)" filter="url(#filter0_d_2040_3997)">
<path d="M711.362 654.473H685.181V680.633H711.362V654.473Z" fill="white"/>
<path d="M711.362 628.312H685.181V654.473H711.362V628.312Z" fill="white"/>
<path d="M711.362 602.105H685.181V628.312H711.362V602.105Z" fill="white"/>
<path d="M685.181 680.633H659V706.793H685.181V680.633Z" fill="white"/>
<path d="M685.181 654.473H659V680.633H685.181V654.473Z" fill="white"/>
<path d="M685.181 628.312H659V654.473H685.181V628.312Z" fill="white"/>
<path d="M685.181 602.105H659V628.312H685.181V602.105Z" fill="white"/>
<path d="M685.181 575.945H659V602.105H685.181V575.945Z" fill="white"/>
<path d="M685.181 549.738H659V575.898H685.181V549.738Z" fill="white"/>
<path d="M685.181 523.578H659V549.738H685.181V523.578Z" fill="white"/>
<path d="M659 680.633H632.772V706.793H659V680.633Z" fill="white"/>
<path d="M659 654.473H632.772V680.633H659V654.473Z" fill="white"/>
<path d="M659 628.312H632.772V654.473H659V628.312Z" fill="white"/>
<path d="M659 602.105H632.772V628.312H659V602.105Z" fill="white"/>
<path d="M659 575.945H632.772V602.105H659V575.945Z" fill="white"/>
<path d="M659 549.738H632.772V575.898H659V549.738Z" fill="white"/>
<path d="M659 523.578H632.772V549.738H659V523.578Z" fill="white"/>
<path d="M659 497.371H632.772V523.578H659V497.371Z" fill="white"/>
<path d="M659 471.211H632.772V497.371H659V471.211Z" fill="white"/>
<path d="M632.772 706.84H606.591V733.047H632.772V706.84Z" fill="white"/>
<path d="M632.772 680.633H606.591V706.793H632.772V680.633Z" fill="white"/>
<path d="M632.772 654.473H606.591V680.633H632.772V654.473Z" fill="white"/>
<path d="M632.772 628.312H606.591V654.473H632.772V628.312Z" fill="white"/>
<path d="M632.772 602.105H606.591V628.312H632.772V602.105Z" fill="white"/>
<path d="M632.772 575.945H606.591V602.105H632.772V575.945Z" fill="white"/>
<path d="M632.772 549.738H606.591V575.898H632.772V549.738Z" fill="white"/>
<path d="M632.772 523.578H606.591V549.738H632.772V523.578Z" fill="white"/>
<path d="M632.772 497.371H606.591V523.578H632.772V497.371Z" fill="white"/>
<path d="M632.772 471.211H606.591V497.371H632.772V471.211Z" fill="white"/>
<path d="M632.772 445.051H606.591V471.211H632.772V445.051Z" fill="white"/>
<path d="M632.772 418.844H606.591V445.051H632.772V418.844Z" fill="white"/>
<path d="M606.59 706.84H580.409V733.047H606.59V706.84Z" fill="white"/>
<path d="M606.59 680.633H580.409V706.793H606.59V680.633Z" fill="white"/>
<path d="M606.59 654.473H580.409V680.633H606.59V654.473Z" fill="white"/>
<path d="M606.59 628.312H580.409V654.473H606.59V628.312Z" fill="white"/>
<path d="M606.59 602.105H580.409V628.312H606.59V602.105Z" fill="white"/>
<path d="M606.59 575.945H580.409V602.105H606.59V575.945Z" fill="white"/>
<path d="M606.59 549.738H580.409V575.898H606.59V549.738Z" fill="white"/>
<path d="M606.59 523.578H580.409V549.738H606.59V523.578Z" fill="white"/>
<path d="M606.59 497.371H580.409V523.578H606.59V497.371Z" fill="white"/>
<path d="M606.59 471.211H580.409V497.371H606.59V471.211Z" fill="white"/>
<path d="M606.59 445.051H580.409V471.211H606.59V445.051Z" fill="white"/>
<path d="M606.59 418.844H580.409V445.051H606.59V418.844Z" fill="white"/>
<path d="M580.362 706.84H554.181V733.047H580.362V706.84Z" fill="white"/>
<path d="M580.362 680.633H554.181V706.793H580.362V680.633Z" fill="white"/>
<path d="M580.362 654.473H554.181V680.633H580.362V654.473Z" fill="white"/>
<path d="M580.362 628.312H554.181V654.473H580.362V628.312Z" fill="white"/>
<path d="M580.362 602.105H554.181V628.312H580.362V602.105Z" fill="white"/>
<path d="M580.362 575.945H554.181V602.105H580.362V575.945Z" fill="white"/>
<path d="M580.362 549.738H554.181V575.898H580.362V549.738Z" fill="white"/>
<path d="M580.362 523.578H554.181V549.738H580.362V523.578Z" fill="white"/>
<path d="M580.362 497.371H554.181V523.578H580.362V497.371Z" fill="white"/>
<path d="M580.362 471.211H554.181V497.371H580.362V471.211Z" fill="white"/>
<path d="M580.362 445.051H554.181V471.211H580.362V445.051Z" fill="white"/>
<path d="M580.362 418.844H554.181V445.051H580.362V418.844Z" fill="white"/>
<path d="M580.362 392.684H554.181V418.844H580.362V392.684Z" fill="white"/>
<path d="M580.362 366.523H554.181V392.684H580.362V366.523Z" fill="white"/>
<path d="M554.228 706.84H528V733.047H554.228V706.84Z" fill="white"/>
<path d="M554.228 680.633H528V706.793H554.228V680.633Z" fill="white"/>
<path d="M554.228 654.473H528V680.633H554.228V654.473Z" fill="white"/>
<path d="M554.228 628.312H528V654.473H554.228V628.312Z" fill="white"/>
<path d="M554.228 602.105H528V628.312H554.228V602.105Z" fill="white"/>
<path d="M554.228 575.945H528V602.105H554.228V575.945Z" fill="white"/>
<path d="M554.228 549.738H528V575.898H554.228V549.738Z" fill="white"/>
<path d="M554.228 523.578H528V549.738H554.228V523.578Z" fill="white"/>
<path d="M554.228 497.371H528V523.578H554.228V497.371Z" fill="white"/>
<path d="M554.228 471.211H528V497.371H554.228V471.211Z" fill="white"/>
<path d="M554.228 445.051H528V471.211H554.228V445.051Z" fill="white"/>
<path d="M554.228 418.844H528V445.051H554.228V418.844Z" fill="#E2D7D7"/>
<path d="M554.228 392.684H528V418.844H554.228V392.684Z" fill="#E2D7D7"/>
<path d="M554.228 366.523H528V392.684H554.228V366.523Z" fill="#E2D7D7"/>
<path d="M554.228 340.316H528V366.477H554.228V340.316Z" fill="#E2D7D7"/>
<path d="M554.228 104.734H528V130.941H554.228V104.734Z" fill="#FFC0C0"/>
<path d="M554.228 78.5273H528V104.688H554.228V78.5273Z" fill="white"/>
<path d="M554.228 52.3672H528V78.5273H554.228V52.3672Z" fill="white"/>
<path d="M527.953 706.84H501.772V733.047H527.953V706.84Z" fill="white"/>
<path d="M527.953 680.633H501.772V706.793H527.953V680.633Z" fill="white"/>
<path d="M527.953 654.473H501.772V680.633H527.953V654.473Z" fill="white"/>
<path d="M527.953 628.312H501.772V654.473H527.953V628.312Z" fill="white"/>
<path d="M527.953 602.105H501.772V628.312H527.953V602.105Z" fill="white"/>
<path d="M527.953 575.945H501.772V602.105H527.953V575.945Z" fill="white"/>
<path d="M527.953 549.738H501.772V575.898H527.953V549.738Z" fill="white"/>
<path d="M527.953 523.578H501.772V549.738H527.953V523.578Z" fill="white"/>
<path d="M527.953 497.371H501.772V523.578H527.953V497.371Z" fill="white"/>
<path d="M527.953 471.211H501.772V497.371H527.953V471.211Z" fill="#E2D7D7"/>
<path d="M527.953 445.051H501.772V471.211H527.953V445.051Z" fill="#E2D7D7"/>
<path d="M527.953 418.844H501.772V445.051H527.953V418.844Z" fill="#E2D7D7"/>
<path d="M527.953 392.684H501.772V418.844H527.953V392.684Z" fill="white"/>
<path d="M527.953 366.523H501.772V392.684H527.953V366.523Z" fill="white"/>
<path d="M527.953 340.316H501.772V366.477H527.953V340.316Z" fill="white"/>
<path d="M527.953 314.156H501.772V340.363H527.953V314.156Z" fill="white"/>
<path d="M527.953 287.949H501.772V314.109H527.953V287.949Z" fill="white"/>
<path d="M527.953 261.789H501.772V287.949H527.953V261.789Z" fill="white"/>
<path d="M527.953 130.895H501.772V157.055H527.953V130.895Z" fill="#FFC0C0"/>
<path d="M527.953 104.734H501.772V130.941H527.953V104.734Z" fill="#FFC0C0"/>
<path d="M527.953 78.5273H501.772V104.688H527.953V78.5273Z" fill="white"/>
<path d="M501.772 706.84H475.591V733.047H501.772V706.84Z" fill="white"/>
<path d="M501.772 680.633H475.591V706.793H501.772V680.633Z" fill="white"/>
<path d="M501.772 654.473H475.591V680.633H501.772V654.473Z" fill="white"/>
<path d="M501.772 628.312H475.591V654.473H501.772V628.312Z" fill="white"/>
<path d="M501.772 602.105H475.591V628.312H501.772V602.105Z" fill="white"/>
<path d="M501.772 575.945H475.591V602.105H501.772V575.945Z" fill="white"/>
<path d="M501.772 549.738H475.591V575.898H501.772V549.738Z" fill="#E2D7D7"/>
<path d="M501.772 523.578H475.591V549.738H501.772V523.578Z" fill="#E2D7D7"/>
<path d="M501.772 497.371H475.591V523.578H501.772V497.371Z" fill="#E2D7D7"/>
<path d="M501.772 471.211H475.591V497.371H501.772V471.211Z" fill="#E2D7D7"/>
<path d="M501.772 445.051H475.591V471.211H501.772V445.051Z" fill="#E2D7D7"/>
<path d="M501.772 418.844H475.591V445.051H501.772V418.844Z" fill="#E2D7D7"/>
<path d="M501.772 157.055H475.591V183.215H501.772V157.055Z" fill="#FFC0C0"/>
<path d="M501.772 130.895H475.591V157.055H501.772V130.895Z" fill="#FFC0C0"/>
<path d="M501.772 104.734H475.591V130.941H501.772V104.734Z" fill="white"/>
<path d="M501.772 78.5273H475.591V104.688H501.772V78.5273Z" fill="white"/>
<path d="M475.59 706.84H449.409V733.047H475.59V706.84Z" fill="white"/>
<path d="M475.59 680.633H449.409V706.793H475.59V680.633Z" fill="white"/>
<path d="M475.59 654.473H449.409V680.633H475.59V654.473Z" fill="white"/>
<path d="M475.59 628.312H449.409V654.473H475.59V628.312Z" fill="white"/>
<path d="M475.59 602.105H449.409V628.312H475.59V602.105Z" fill="#E2D7D7"/>
<path d="M475.59 575.945H449.409V602.105H475.59V575.945Z" fill="#E2D7D7"/>
<path d="M475.59 549.738H449.409V575.898H475.59V549.738Z" fill="#E2D7D7"/>
<path d="M475.59 523.578H449.409V549.738H475.59V523.578Z" fill="#E2D7D7"/>
<path d="M475.59 130.895H449.409V157.055H475.59V130.895Z" fill="white"/>
<path d="M475.59 104.734H449.409V130.941H475.59V104.734Z" fill="white"/>
<path d="M449.41 706.84H423.182V733.047H449.41V706.84Z" fill="white"/>
<path d="M449.41 680.633H423.182V706.793H449.41V680.633Z" fill="white"/>
<path d="M449.41 654.473H423.182V680.633H449.41V654.473Z" fill="white"/>
<path d="M449.41 628.312H423.182V654.473H449.41V628.312Z" fill="#E2D7D7"/>
<path d="M449.41 602.105H423.182V628.312H449.41V602.105Z" fill="#E2D7D7"/>
<path d="M449.41 575.945H423.182V602.105H449.41V575.945Z" fill="#E2D7D7"/>
<path d="M449.41 549.738H423.182V575.898H449.41V549.738Z" fill="#E2D7D7"/>
<path d="M423.181 706.84H397V733.047H423.181V706.84Z" fill="white"/>
<path d="M423.181 680.633H397V706.793H423.181V680.633Z" fill="white"/>
<path d="M423.181 654.473H397V680.633H423.181V654.473Z" fill="white"/>
<path d="M423.181 628.312H397V654.473H423.181V628.312Z" fill="#E2D7D7"/>
<path d="M423.181 602.105H397V628.312H423.181V602.105Z" fill="#E2D7D7"/>
<path d="M397 706.84H370.819V733.047H397V706.84Z" fill="white"/>
<path d="M397 680.633H370.819V706.793H397V680.633Z" fill="white"/>
<path d="M397 654.473H370.819V680.633H397V654.473Z" fill="#E2D7D7"/>
<path d="M397 628.312H370.819V654.473H397V628.312Z" fill="#E2D7D7"/>
<path d="M370.772 706.84H344.591V733.047H370.772V706.84Z" fill="white"/>
<path d="M370.772 680.633H344.591V706.793H370.772V680.633Z" fill="white"/>
<path d="M370.772 654.473H344.591V680.633H370.772V654.473Z" fill="#E2D7D7"/>
<path d="M344.637 680.633H318.409V706.793H344.637V680.633Z" fill="white"/>
<path d="M344.637 654.473H318.409V680.633H344.637V654.473Z" fill="#E2D7D7"/>
<path d="M344.637 104.734H318.409V130.941H344.637V104.734Z" fill="#E2D7D7"/>
<path d="M344.637 78.5273H318.409V104.688H344.637V78.5273Z" fill="#E2D7D7"/>
<path d="M344.637 52.3672H318.409V78.5273H344.637V52.3672Z" fill="#E2D7D7"/>
<path d="M318.363 104.734H292.182V130.941H318.363V104.734Z" fill="#E2D7D7"/>
<path d="M318.363 78.5273H292.182V104.688H318.363V78.5273Z" fill="white"/>
<path d="M292.181 104.734H266V130.941H292.181V104.734Z" fill="white"/>
<path d="M292.181 78.5273H266V104.688H292.181V78.5273Z" fill="white"/>
<path d="M266 130.895H239.819V157.055H266V130.895Z" fill="white"/>
<path d="M266 104.734H239.819V130.941H266V104.734Z" fill="white"/>
<path d="M501.772 418.844H475.591V445.051H501.772V418.844Z" fill="white"/>
<path d="M501.772 392.684H475.591V418.844H501.772V392.684Z" fill="white"/>
<path d="M501.772 366.523H475.591V392.684H501.772V366.523Z" fill="white"/>
<path d="M501.772 340.316H475.591V366.477H501.772V340.316Z" fill="white"/>
<path d="M501.772 314.156H475.591V340.363H501.772V314.156Z" fill="white"/>
<path d="M501.772 287.949H475.591V314.109H501.772V287.949Z" fill="white"/>
<path d="M501.772 261.789H475.591V287.949H501.772V261.789Z" fill="white"/>
<path d="M501.772 235.629H475.591V261.789H501.772V235.629Z" fill="white"/>
<path d="M501.772 209.422H475.591V235.629H501.772V209.422Z" fill="white"/>
<path d="M501.772 183.262H475.591V209.422H501.772V183.262Z" fill="white"/>
<path d="M475.591 497.371H449.41V523.578H475.591V497.371Z" fill="white"/>
<path d="M475.591 471.211H449.41V497.371H475.591V471.211Z" fill="white"/>
<path d="M475.591 445.051H449.41V471.211H475.591V445.051Z" fill="white"/>
<path d="M475.591 418.844H449.41V445.051H475.591V418.844Z" fill="white"/>
<path d="M475.591 392.684H449.41V418.844H475.591V392.684Z" fill="white"/>
<path d="M475.591 366.523H449.41V392.684H475.591V366.523Z" fill="white"/>
<path d="M475.591 340.316H449.41V366.477H475.591V340.316Z" fill="white"/>
<path d="M475.591 314.156H449.41V340.363H475.591V314.156Z" fill="white"/>
<path d="M475.591 287.949H449.41V314.109H475.591V287.949Z" fill="white"/>
<path d="M475.591 261.789H449.41V287.949H475.591V261.789Z" fill="white"/>
<path d="M475.591 235.629H449.41V261.789H475.591V235.629Z" fill="white"/>
<path d="M475.591 209.422H449.41V235.629H475.591V209.422Z" fill="white"/>
<path d="M475.591 183.262H449.41V209.422H475.591V183.262Z" fill="white"/>
<path d="M475.591 157.055H449.41V183.215H475.591V157.055Z" fill="white"/>
<path d="M449.409 523.578H423.181V549.738H449.409V523.578Z" fill="white"/>
<path d="M449.409 497.371H423.181V523.578H449.409V497.371Z" fill="white"/>
<path d="M449.409 471.211H423.181V497.371H449.409V471.211Z" fill="white"/>
<path d="M449.409 445.051H423.181V471.211H449.409V445.051Z" fill="white"/>
<path d="M449.409 418.844H423.181V445.051H449.409V418.844Z" fill="white"/>
<path d="M449.409 392.684H423.181V418.844H449.409V392.684Z" fill="white"/>
<path d="M449.409 366.523H423.181V392.684H449.409V366.523Z" fill="white"/>
<path d="M449.409 340.316H423.181V366.477H449.409V340.316Z" fill="white"/>
<path d="M449.409 314.156H423.181V340.363H449.409V314.156Z" fill="white"/>
<path d="M449.409 287.949H423.181V314.109H449.409V287.949Z" fill="white"/>
<path d="M449.409 261.789H423.181V287.949H449.409V261.789Z" fill="white"/>
<path d="M449.409 235.629H423.181V261.789H449.409V235.629Z" fill="white"/>
<path d="M449.409 209.422H423.181V235.629H449.409V209.422Z" fill="white"/>
<path d="M449.409 183.262H423.181V209.422H449.409V183.262Z" fill="white"/>
<path d="M449.409 157.055H423.181V183.215H449.409V157.055Z" fill="white"/>
<path d="M449.409 130.895H423.181V157.055H449.409V130.895Z" fill="white"/>
<path d="M423.181 575.945H397V602.105H423.181V575.945Z" fill="white"/>
<path d="M423.181 549.738H397V575.898H423.181V549.738Z" fill="white"/>
<path d="M423.181 523.578H397V549.738H423.181V523.578Z" fill="white"/>
<path d="M423.181 497.371H397V523.578H423.181V497.371Z" fill="white"/>
<path d="M423.181 471.211H397V497.371H423.181V471.211Z" fill="white"/>
<path d="M423.181 445.051H397V471.211H423.181V445.051Z" fill="white"/>
<path d="M423.181 418.844H397V445.051H423.181V418.844Z" fill="white"/>
<path d="M423.181 392.684H397V418.844H423.181V392.684Z" fill="white"/>
<path d="M423.181 366.523H397V392.684H423.181V366.523Z" fill="white"/>
<path d="M423.181 340.316H397V366.477H423.181V340.316Z" fill="white"/>
<path d="M423.181 314.156H397V340.363H423.181V314.156Z" fill="white"/>
<path d="M423.181 287.949H397V314.109H423.181V287.949Z" fill="white"/>
<path d="M423.181 261.789H397V287.949H423.181V261.789Z" fill="white"/>
<path d="M423.181 235.629H397V261.789H423.181V235.629Z" fill="white"/>
<path d="M423.181 209.422H397V235.629H423.181V209.422Z" fill="white"/>
<path d="M423.181 183.262H397V209.422H423.181V183.262Z" fill="white"/>
<path d="M423.181 157.055H397V183.215H423.181V157.055Z" fill="white"/>
<path d="M423.181 130.895H397V157.055H423.181V130.895Z" fill="white"/>
<path d="M397 602.105H370.819V628.312H397V602.105Z" fill="white"/>
<path d="M397 575.945H370.819V602.105H397V575.945Z" fill="white"/>
<path d="M397 549.738H370.819V575.898H397V549.738Z" fill="white"/>
<path d="M397 523.578H370.819V549.738H397V523.578Z" fill="white"/>
<path d="M397 497.371H370.819V523.578H397V497.371Z" fill="white"/>
<path d="M397 471.211H370.819V497.371H397V471.211Z" fill="white"/>
<path d="M397 445.051H370.819V471.211H397V445.051Z" fill="white"/>
<path d="M397 418.844H370.819V445.051H397V418.844Z" fill="white"/>
<path d="M397 392.684H370.819V418.844H397V392.684Z" fill="white"/>
<path d="M397 366.523H370.819V392.684H397V366.523Z" fill="white"/>
<path d="M397 340.316H370.819V366.477H397V340.316Z" fill="white"/>
<path d="M397 314.156H370.819V340.363H397V314.156Z" fill="white"/>
<path d="M397 287.949H370.819V314.109H397V287.949Z" fill="white"/>
<path d="M397 261.789H370.819V287.949H397V261.789Z" fill="white"/>
<path d="M397 235.629H370.819V261.789H397V235.629Z" fill="white"/>
<path d="M397 209.422H370.819V235.629H397V209.422Z" fill="white"/>
<path d="M397 183.262H370.819V209.422H397V183.262Z" fill="white"/>
<path d="M397 157.055H370.819V183.215H397V157.055Z" fill="white"/>
<path d="M397 130.895H370.819V157.055H397V130.895Z" fill="white"/>
<path d="M370.772 628.312H344.59V654.473H370.772V628.312Z" fill="white"/>
<path d="M370.772 602.105H344.59V628.312H370.772V602.105Z" fill="white"/>
<path d="M370.772 575.945H344.59V602.105H370.772V575.945Z" fill="white"/>
<path d="M370.772 549.738H344.59V575.898H370.772V549.738Z" fill="white"/>
<path d="M370.772 523.578H344.59V549.738H370.772V523.578Z" fill="white"/>
<path d="M370.772 497.371H344.59V523.578H370.772V497.371Z" fill="white"/>
<path d="M370.772 471.211H344.59V497.371H370.772V471.211Z" fill="white"/>
<path d="M370.772 445.051H344.59V471.211H370.772V445.051Z" fill="white"/>
<path d="M370.772 418.844H344.59V445.051H370.772V418.844Z" fill="white"/>
<path d="M370.772 392.684H344.59V418.844H370.772V392.684Z" fill="white"/>
<path d="M370.772 366.523H344.59V392.684H370.772V366.523Z" fill="white"/>
<path d="M370.772 340.316H344.59V366.477H370.772V340.316Z" fill="white"/>
<path d="M370.772 314.156H344.59V340.363H370.772V314.156Z" fill="white"/>
<path d="M370.772 287.949H344.59V314.109H370.772V287.949Z" fill="white"/>
<path d="M370.772 261.789H344.59V287.949H370.772V261.789Z" fill="white"/>
<path d="M370.772 235.629H344.59V261.789H370.772V235.629Z" fill="white"/>
<path d="M370.772 209.422H344.59V235.629H370.772V209.422Z" fill="white"/>
<path d="M370.772 183.262H344.59V209.422H370.772V183.262Z" fill="white"/>
<path d="M370.772 157.055H344.59V183.215H370.772V157.055Z" fill="white"/>
<path d="M370.772 130.895H344.59V157.055H370.772V130.895Z" fill="white"/>
<path d="M344.638 628.312H318.41V654.473H344.638V628.312Z" fill="white"/>
<path d="M344.638 602.105H318.41V628.312H344.638V602.105Z" fill="white"/>
<path d="M344.638 575.945H318.41V602.105H344.638V575.945Z" fill="white"/>
<path d="M344.638 549.738H318.41V575.898H344.638V549.738Z" fill="white"/>
<path d="M344.638 523.578H318.41V549.738H344.638V523.578Z" fill="white"/>
<path d="M344.638 497.371H318.41V523.578H344.638V497.371Z" fill="white"/>
<path d="M344.638 471.211H318.41V497.371H344.638V471.211Z" fill="white"/>
<path d="M344.638 445.051H318.41V471.211H344.638V445.051Z" fill="white"/>
<path d="M344.638 418.844H318.41V445.051H344.638V418.844Z" fill="white"/>
<path d="M344.638 392.684H318.41V418.844H344.638V392.684Z" fill="white"/>
<path d="M344.638 366.523H318.41V392.684H344.638V366.523Z" fill="white"/>
<path d="M344.638 340.316H318.41V366.477H344.638V340.316Z" fill="white"/>
<path d="M344.638 314.156H318.41V340.363H344.638V314.156Z" fill="white"/>
<path d="M344.638 287.949H318.41V314.109H344.638V287.949Z" fill="white"/>
<path d="M344.638 261.789H318.41V287.949H344.638V261.789Z" fill="white"/>
<path d="M344.638 235.629H318.41V261.789H344.638V235.629Z" fill="white"/>
<path d="M344.638 209.422H318.41V235.629H344.638V209.422Z" fill="white"/>
<path d="M344.638 183.262H318.41V209.422H344.638V183.262Z" fill="white"/>
<path d="M344.638 157.055H318.41V183.215H344.638V157.055Z" fill="white"/>
<path d="M344.638 130.895H318.41V157.055H344.638V130.895Z" fill="white"/>
<path d="M318.362 628.312H292.181V654.473H318.362V628.312Z" fill="white"/>
<path d="M318.362 602.105H292.181V628.312H318.362V602.105Z" fill="white"/>
<path d="M318.362 575.945H292.181V602.105H318.362V575.945Z" fill="white"/>
<path d="M318.362 549.738H292.181V575.898H318.362V549.738Z" fill="white"/>
<path d="M318.362 523.578H292.181V549.738H318.362V523.578Z" fill="white"/>
<path d="M318.362 497.371H292.181V523.578H318.362V497.371Z" fill="white"/>
<path d="M318.362 471.211H292.181V497.371H318.362V471.211Z" fill="white"/>
<path d="M318.362 445.051H292.181V471.211H318.362V445.051Z" fill="white"/>
<path d="M318.362 418.844H292.181V445.051H318.362V418.844Z" fill="white"/>
<path d="M318.362 392.684H292.181V418.844H318.362V392.684Z" fill="white"/>
<path d="M318.362 366.523H292.181V392.684H318.362V366.523Z" fill="white"/>
<path d="M318.362 340.316H292.181V366.477H318.362V340.316Z" fill="white"/>
<path d="M318.362 314.156H292.181V340.363H318.362V314.156Z" fill="white"/>
<path d="M318.362 287.949H292.181V314.109H318.362V287.949Z" fill="white"/>
<path d="M318.362 261.789H292.181V287.949H318.362V261.789Z" fill="white"/>
<path d="M318.362 235.629H292.181V261.789H318.362V235.629Z" fill="white"/>
<path d="M318.362 209.422H292.181V235.629H318.362V209.422Z" fill="white"/>
<path d="M318.362 183.262H292.181V209.422H318.362V183.262Z" fill="white"/>
<path d="M318.362 157.055H292.181V183.215H318.362V157.055Z" fill="white"/>
<path d="M318.362 130.895H292.181V157.055H318.362V130.895Z" fill="white"/>
<path d="M292.181 628.312H266V654.473H292.181V628.312Z" fill="white"/>
<path d="M292.181 602.105H266V628.312H292.181V602.105Z" fill="white"/>
<path d="M292.181 575.945H266V602.105H292.181V575.945Z" fill="white"/>
<path d="M292.181 549.738H266V575.898H292.181V549.738Z" fill="white"/>
<path d="M292.181 523.578H266V549.738H292.181V523.578Z" fill="white"/>
<path d="M292.181 497.371H266V523.578H292.181V497.371Z" fill="white"/>
<path d="M292.181 471.211H266V497.371H292.181V471.211Z" fill="white"/>
<path d="M292.181 445.051H266V471.211H292.181V445.051Z" fill="white"/>
<path d="M292.181 418.844H266V445.051H292.181V418.844Z" fill="white"/>
<path d="M292.181 392.684H266V418.844H292.181V392.684Z" fill="white"/>
<path d="M292.181 366.523H266V392.684H292.181V366.523Z" fill="white"/>
<path d="M292.181 340.316H266V366.477H292.181V340.316Z" fill="white"/>
<path d="M292.181 314.156H266V340.363H292.181V314.156Z" fill="white"/>
<path d="M292.181 287.949H266V314.109H292.181V287.949Z" fill="white"/>
<path d="M292.181 261.789H266V287.949H292.181V261.789Z" fill="white"/>
<path d="M292.181 235.629H266V261.789H292.181V235.629Z" fill="white"/>
<path d="M292.181 209.422H266V235.629H292.181V209.422Z" fill="white"/>
<path d="M292.181 183.262H266V209.422H292.181V183.262Z" fill="white"/>
<path d="M292.181 157.055H266V183.215H292.181V157.055Z" fill="white"/>
<path d="M292.181 130.895H266V157.055H292.181V130.895Z" fill="white"/>
<path d="M266 628.312H239.819V654.473H266V628.312Z" fill="white"/>
<path d="M266 602.105H239.819V628.312H266V602.105Z" fill="white"/>
<path d="M266 575.945H239.819V602.105H266V575.945Z" fill="white"/>
<path d="M266 549.738H239.819V575.898H266V549.738Z" fill="white"/>
<path d="M266 523.578H239.819V549.738H266V523.578Z" fill="white"/>
<path d="M266 497.371H239.819V523.578H266V497.371Z" fill="white"/>
<path d="M266 471.211H239.819V497.371H266V471.211Z" fill="white"/>
<path d="M266 445.051H239.819V471.211H266V445.051Z" fill="white"/>
<path d="M266 418.844H239.819V445.051H266V418.844Z" fill="white"/>
<path d="M266 392.684H239.819V418.844H266V392.684Z" fill="white"/>
<path d="M266 366.523H239.819V392.684H266V366.523Z" fill="white"/>
<path d="M266 340.316H239.819V366.477H266V340.316Z" fill="white"/>
<path d="M266 314.156H239.819V340.363H266V314.156Z" fill="white"/>
<path d="M266 287.949H239.819V314.109H266V287.949Z" fill="white"/>
<path d="M266 261.789H239.819V287.949H266V261.789Z" fill="white"/>
<path d="M266 235.629H239.819V261.789H266V235.629Z" fill="white"/>
<path d="M266 209.422H239.819V235.629H266V209.422Z" fill="white"/>
<path d="M266 183.262H239.819V209.422H266V183.262Z" fill="white"/>
<path d="M266 157.055H239.819V183.215H266V157.055Z" fill="white"/>
<path d="M239.818 628.312H213.59V654.473H239.818V628.312Z" fill="white"/>
<path d="M239.818 602.105H213.59V628.312H239.818V602.105Z" fill="white"/>
<path d="M239.818 575.945H213.59V602.105H239.818V575.945Z" fill="white"/>
<path d="M239.818 549.738H213.59V575.898H239.818V549.738Z" fill="white"/>
<path d="M239.818 523.578H213.59V549.738H239.818V523.578Z" fill="white"/>
<path d="M239.818 497.371H213.59V523.578H239.818V497.371Z" fill="white"/>
<path d="M239.818 471.211H213.59V497.371H239.818V471.211Z" fill="white"/>
<path d="M239.818 445.051H213.59V471.211H239.818V445.051Z" fill="white"/>
<path d="M239.818 418.844H213.59V445.051H239.818V418.844Z" fill="white"/>
<path d="M239.818 392.684H213.59V418.844H239.818V392.684Z" fill="white"/>
<path d="M239.818 366.523H213.59V392.684H239.818V366.523Z" fill="white"/>
<path d="M239.818 340.316H213.59V366.477H239.818V340.316Z" fill="white"/>
<path d="M239.818 314.156H213.59V340.363H239.818V314.156Z" fill="white"/>
<path d="M239.818 287.949H213.59V314.109H239.818V287.949Z" fill="white"/>
<path d="M239.818 261.789H213.59V287.949H239.818V261.789Z" fill="white"/>
<path d="M239.818 235.629H213.59V261.789H239.818V235.629Z" fill="white"/>
<path d="M239.818 209.422H213.59V235.629H239.818V209.422Z" fill="white"/>
<path d="M239.818 183.262H213.59V209.422H239.818V183.262Z" fill="white"/>
<path d="M239.818 157.055H213.59V183.215H239.818V157.055Z" fill="white"/>
<path d="M213.59 628.312H187.409V654.473H213.59V628.312Z" fill="white"/>
<path d="M213.59 602.105H187.409V628.312H213.59V602.105Z" fill="white"/>
<path d="M213.59 575.945H187.409V602.105H213.59V575.945Z" fill="white"/>
<path d="M213.59 549.738H187.409V575.898H213.59V549.738Z" fill="white"/>
<path d="M213.59 523.578H187.409V549.738H213.59V523.578Z" fill="white"/>
<path d="M213.59 497.371H187.409V523.578H213.59V497.371Z" fill="white"/>
<path d="M213.59 471.211H187.409V497.371H213.59V471.211Z" fill="white"/>
<path d="M213.59 445.051H187.409V471.211H213.59V445.051Z" fill="white"/>
<path d="M213.59 418.844H187.409V445.051H213.59V418.844Z" fill="white"/>
<path d="M213.59 392.684H187.409V418.844H213.59V392.684Z" fill="white"/>
<path d="M213.59 366.523H187.409V392.684H213.59V366.523Z" fill="white"/>
<path d="M213.59 340.316H187.409V366.477H213.59V340.316Z" fill="white"/>
<path d="M213.59 314.156H187.409V340.363H213.59V314.156Z" fill="white"/>
<path d="M213.59 287.949H187.409V314.109H213.59V287.949Z" fill="white"/>
<path d="M213.59 261.789H187.409V287.949H213.59V261.789Z" fill="white"/>
<path d="M213.59 235.629H187.409V261.789H213.59V235.629Z" fill="white"/>
<path d="M213.59 209.422H187.409V235.629H213.59V209.422Z" fill="white"/>
<path d="M213.59 183.262H187.409V209.422H213.59V183.262Z" fill="white"/>
<path d="M187.362 628.312H161.181V654.473H187.362V628.312Z" fill="white"/>
<path d="M187.362 602.105H161.181V628.312H187.362V602.105Z" fill="white"/>
<path d="M187.362 575.945H161.181V602.105H187.362V575.945Z" fill="white"/>
<path d="M187.362 549.738H161.181V575.898H187.362V549.738Z" fill="white"/>
<path d="M187.362 523.578H161.181V549.738H187.362V523.578Z" fill="white"/>
<path d="M187.362 497.371H161.181V523.578H187.362V497.371Z" fill="white"/>
<path d="M187.362 471.211H161.181V497.371H187.362V471.211Z" fill="white"/>
<path d="M187.362 445.051H161.181V471.211H187.362V445.051Z" fill="white"/>
<path d="M187.362 418.844H161.181V445.051H187.362V418.844Z" fill="white"/>
<path d="M187.362 392.684H161.181V418.844H187.362V392.684Z" fill="white"/>
<path d="M187.362 366.523H161.181V392.684H187.362V366.523Z" fill="white"/>
<path d="M187.362 340.316H161.181V366.477H187.362V340.316Z" fill="white"/>
<path d="M187.362 314.156H161.181V340.363H187.362V314.156Z" fill="white"/>
<path d="M187.362 287.949H161.181V314.109H187.362V287.949Z" fill="white"/>
<path d="M187.362 261.789H161.181V287.949H187.362V261.789Z" fill="white"/>
<path d="M187.362 235.629H161.181V261.789H187.362V235.629Z" fill="white"/>
<path d="M161.181 628.312H135V654.473H161.181V628.312Z" fill="white"/>
<path d="M161.181 602.105H135V628.312H161.181V602.105Z" fill="white"/>
<path d="M161.181 575.945H135V602.105H161.181V575.945Z" fill="white"/>
<path d="M161.181 549.738H135V575.898H161.181V549.738Z" fill="white"/>
<path d="M161.181 523.578H135V549.738H161.181V523.578Z" fill="white"/>
<path d="M161.181 497.371H135V523.578H161.181V497.371Z" fill="white"/>
<path d="M161.181 471.211H135V497.371H161.181V471.211Z" fill="white"/>
<path d="M161.181 445.051H135V471.211H161.181V445.051Z" fill="white"/>
<path d="M161.181 418.844H135V445.051H161.181V418.844Z" fill="white"/>
<path d="M161.181 392.684H135V418.844H161.181V392.684Z" fill="white"/>
<path d="M161.181 366.523H135V392.684H161.181V366.523Z" fill="white"/>
<path d="M161.181 340.316H135V366.477H161.181V340.316Z" fill="white"/>
<path d="M161.181 314.156H135V340.363H161.181V314.156Z" fill="white"/>
<path d="M161.181 287.949H135V314.109H161.181V287.949Z" fill="white"/>
<path d="M135.047 628.312H108.818V654.473H135.047V628.312Z" fill="white"/>
<path d="M135.047 602.105H108.818V628.312H135.047V602.105Z" fill="white"/>
<path d="M135.047 575.945H108.818V602.105H135.047V575.945Z" fill="white"/>
<path d="M135.047 549.738H108.818V575.898H135.047V549.738Z" fill="white"/>
<path d="M135.047 523.578H108.818V549.738H135.047V523.578Z" fill="white"/>
<path d="M135.047 497.371H108.818V523.578H135.047V497.371Z" fill="white"/>
<path d="M135.047 471.211H108.818V497.371H135.047V471.211Z" fill="white"/>
<path d="M135.047 445.051H108.818V471.211H135.047V445.051Z" fill="white"/>
<path d="M135.047 418.844H108.818V445.051H135.047V418.844Z" fill="white"/>
<path d="M135.047 392.684H108.818V418.844H135.047V392.684Z" fill="white"/>
<path d="M135.047 366.523H108.818V392.684H135.047V366.523Z" fill="white"/>
<path d="M135.047 340.316H108.818V366.477H135.047V340.316Z" fill="white"/>
<path d="M108.772 628.312H82.5908V654.473H108.772V628.312Z" fill="white"/>
<path d="M108.772 602.105H82.5908V628.312H108.772V602.105Z" fill="white"/>
<path d="M108.772 575.945H82.5908V602.105H108.772V575.945Z" fill="white"/>
<path d="M108.772 549.738H82.5908V575.898H108.772V549.738Z" fill="white"/>
<path d="M108.772 523.578H82.5908V549.738H108.772V523.578Z" fill="white"/>
<path d="M108.772 497.371H82.5908V523.578H108.772V497.371Z" fill="white"/>
<path d="M108.772 471.211H82.5908V497.371H108.772V471.211Z" fill="white"/>
<path d="M108.772 445.051H82.5908V471.211H108.772V445.051Z" fill="white"/>
<path d="M108.772 418.844H82.5908V445.051H108.772V418.844Z" fill="white"/>
<path d="M108.772 392.684H82.5908V418.844H108.772V392.684Z" fill="white"/>
<path d="M82.5904 628.312H56.4092V654.473H82.5904V628.312Z" fill="white"/>
<path d="M82.5904 602.105H56.4092V628.312H82.5904V602.105Z" fill="white"/>
<path d="M82.5904 575.945H56.4092V602.105H82.5904V575.945Z" fill="white"/>
<path d="M82.5904 549.738H56.4092V575.898H82.5904V549.738Z" fill="white"/>
<path d="M82.5904 523.578H56.4092V549.738H82.5904V523.578Z" fill="white"/>
<path d="M82.5904 497.371H56.4092V523.578H82.5904V497.371Z" fill="white"/>
<path d="M82.5904 471.211H56.4092V497.371H82.5904V471.211Z" fill="white"/>
<path d="M82.5904 445.051H56.4092V471.211H82.5904V445.051Z" fill="white"/>
<path d="M82.5904 418.844H56.4092V445.051H82.5904V418.844Z" fill="white"/>
<path d="M82.5904 392.684H56.4092V418.844H82.5904V392.684Z" fill="white"/>
<path d="M56.4093 602.105H30.1812V628.312H56.4093V602.105Z" fill="white"/>
<path d="M56.4093 575.945H30.1812V602.105H56.4093V575.945Z" fill="white"/>
<path d="M56.4093 549.738H30.1812V575.898H56.4093V549.738Z" fill="white"/>
<path d="M56.4093 523.578H30.1812V549.738H56.4093V523.578Z" fill="white"/>
<path d="M56.4093 497.371H30.1812V523.578H56.4093V497.371Z" fill="white"/>
<path d="M56.4093 471.211H30.1812V497.371H56.4093V471.211Z" fill="white"/>
<path d="M56.4093 445.051H30.1812V471.211H56.4093V445.051Z" fill="white"/>
<path d="M56.4093 418.844H30.1812V445.051H56.4093V418.844Z" fill="white"/>
<path d="M30.1812 575.945H4V602.105H30.1812V575.945Z" fill="white"/>
<path d="M30.1812 549.738H4V575.898H30.1812V549.738Z" fill="white"/>
<path d="M30.1812 523.578H4V549.738H30.1812V523.578Z" fill="white"/>
<path d="M30.1812 497.371H4V523.578H30.1812V497.371Z" fill="white"/>
<path d="M30.1812 471.211H4V497.371H30.1812V471.211Z" fill="white"/>
<path d="M30.1812 445.051H4V471.211H30.1812V445.051Z" fill="white"/>
<path d="M344.638 706.84H318.41V733.047H344.638V706.84Z" fill="white"/>
<path d="M344.638 680.633H318.41V706.793H344.638V680.633Z" fill="white"/>
<path d="M318.363 706.84H292.182V733.047H318.363V706.84Z" fill="white"/>
<path d="M318.363 680.633H292.182V706.793H318.363V680.633Z" fill="white"/>
<path d="M213.59 471.211H187.409V497.371H213.59V471.211Z" fill="#3F2A5E"/>
<path d="M213.59 445.051H187.409V471.211H213.59V445.051Z" fill="#3F2A5E"/>
<path d="M108.772 471.211H82.5908V497.371H108.772V471.211Z" fill="#3F2A5E"/>
<path d="M108.772 445.051H82.5908V471.211H108.772V445.051Z" fill="#3F2A5E"/>
<path d="M580.363 287.949H554.182V314.109H580.363V287.949Z" fill="#353535"/>
<path d="M554.229 287.949H528V314.109H554.229V287.949Z" fill="#353535"/>
<path d="M554.229 261.789H528V287.949H554.229V261.789Z" fill="#353535"/>
<path d="M580.363 261.789H554.182V287.949H580.363V261.789Z" fill="#353535"/>
<path d="M554.229 235.629H528V261.789H554.229V235.629Z" fill="#353535"/>
<path d="M501.772 235.629H475.591V261.789H501.772V235.629Z" fill="#353535"/>
<path d="M501.772 261.789H475.591V287.949H501.772V261.789Z" fill="#353535"/>
<path d="M527.953 235.629H501.772V261.789H527.953V235.629Z" fill="#353535"/>
<path d="M527.953 261.789H501.772V287.949H527.953V261.789Z" fill="#353535"/>
<path d="M449.409 340.316H423.181V366.477H449.409V340.316Z" fill="#353535"/>
<path d="M423.182 340.316H397V366.477H423.182V340.316Z" fill="#353535"/>
<path d="M397 340.316H370.819V366.477H397V340.316Z" fill="#353535"/>
<path d="M370.772 340.316H344.591V366.477H370.772V340.316Z" fill="#353535"/>
<path d="M475.591 314.156H449.41V340.363H475.591V314.156Z" fill="#353535"/>
<path d="M475.591 261.789H449.41V287.949H475.591V261.789Z" fill="#353535"/>
<path d="M475.591 235.629H449.41V261.789H475.591V235.629Z" fill="#353535"/>
<path d="M475.591 287.949H449.41V314.109H475.591V287.949Z" fill="#353535"/>
<path d="M449.409 314.156H423.181V340.363H449.409V314.156Z" fill="#353535"/>
<path d="M449.409 287.949H423.181V314.109H449.409V287.949Z" fill="#353535"/>
<path d="M449.409 261.789H423.181V287.949H449.409V261.789Z" fill="#353535"/>
<path d="M449.409 235.629H423.181V261.789H449.409V235.629Z" fill="#353535"/>
<path d="M423.182 314.156H397V340.363H423.182V314.156Z" fill="#353535"/>
<path d="M423.182 287.949H397V314.109H423.182V287.949Z" fill="#353535"/>
<path d="M423.182 235.629H397V261.789H423.182V235.629Z" fill="#353535"/>
<path d="M423.182 261.789H397V287.949H423.182V261.789Z" fill="#353535"/>
<path d="M397 235.629H370.819V261.789H397V235.629Z" fill="#353535"/>
<path d="M397 287.949H370.819V314.109H397V287.949Z" fill="#353535"/>
<path d="M397 314.156H370.819V340.363H397V314.156Z" fill="#353535"/>
<path d="M397 261.789H370.819V287.949H397V261.789Z" fill="#353535"/>
<path d="M370.772 314.156H344.591V340.363H370.772V314.156Z" fill="#353535"/>
<path d="M370.772 235.629H344.591V261.789H370.772V235.629Z" fill="#353535"/>
<path d="M370.772 287.949H344.591V314.109H370.772V287.949Z" fill="#353535"/>
<path d="M370.772 261.789H344.591V287.949H370.772V261.789Z" fill="#353535"/>
<path d="M344.638 314.156H318.41V340.363H344.638V314.156Z" fill="#353535"/>
<path d="M344.638 235.629H318.41V261.789H344.638V235.629Z" fill="#353535"/>
<path d="M344.638 287.949H318.41V314.109H344.638V287.949Z" fill="#353535"/>
<path d="M344.638 261.789H318.41V287.949H344.638V261.789Z" fill="#353535"/>
<path d="M344.638 340.316H318.41V366.477H344.638V340.316Z" fill="#353535"/>
<path d="M318.363 314.156H292.182V340.363H318.363V314.156Z" fill="#353535"/>
<path d="M318.363 287.949H292.182V314.109H318.363V287.949Z" fill="#353535"/>
<path d="M292.181 261.789H266V287.949H292.181V261.789Z" fill="#353535"/>
<path d="M292.181 235.629H266V261.789H292.181V235.629Z" fill="#353535"/>
<path d="M266.001 235.629H239.819V261.789H266.001V235.629Z" fill="#353535"/>
<path d="M318.363 261.789H292.182V287.949H318.363V261.789Z" fill="#353535"/>
<path d="M318.363 235.629H292.182V261.789H318.363V235.629Z" fill="#353535"/>
<path d="M266.001 261.789H239.819V287.949H266.001V261.789Z" fill="#353535"/>
<path d="M266.001 314.156H239.819V340.363H266.001V314.156Z" fill="#353535"/>
<path d="M266.001 287.949H239.819V314.109H266.001V287.949Z" fill="#353535"/>
<path d="M239.819 340.316H213.591V366.477H239.819V340.316Z" fill="#353535"/>
<path d="M213.59 340.316H187.409V366.477H213.59V340.316Z" fill="#353535"/>
<path d="M187.363 340.316H161.182V366.477H187.363V340.316Z" fill="#353535"/>
<path d="M161.181 340.316H135V366.477H161.181V340.316Z" fill="#353535"/>
<path d="M135.047 340.316H108.819V366.477H135.047V340.316Z" fill="#353535"/>
<path d="M239.819 287.949H213.591V314.109H239.819V287.949Z" fill="#353535"/>
<path d="M239.819 261.789H213.591V287.949H239.819V261.789Z" fill="#353535"/>
<path d="M239.819 235.629H213.591V261.789H239.819V235.629Z" fill="#353535"/>
<path d="M213.59 235.629H187.409V261.789H213.59V235.629Z" fill="#353535"/>
<path d="M213.59 261.789H187.409V287.949H213.59V261.789Z" fill="#353535"/>
<path d="M213.59 287.949H187.409V314.109H213.59V287.949Z" fill="#353535"/>
<path d="M187.363 261.789H161.182V287.949H187.363V261.789Z" fill="#353535"/>
<path d="M187.363 235.629H161.182V261.789H187.363V235.629Z" fill="#353535"/>
<path d="M187.363 287.949H161.182V314.109H187.363V287.949Z" fill="#353535"/>
<path d="M161.181 287.949H135V314.109H161.181V287.949Z" fill="#353535"/>
<path d="M161.181 261.789H135V287.949H161.181V261.789Z" fill="#353535"/>
<path d="M161.181 235.629H135V261.789H161.181V235.629Z" fill="#353535"/>
<path d="M135.047 261.789H108.819V287.949H135.047V261.789Z" fill="#353535"/>
<path d="M135.047 287.949H108.819V314.109H135.047V287.949Z" fill="#353535"/>
<path d="M239.819 314.156H213.591V340.363H239.819V314.156Z" fill="#353535"/>
<path d="M213.59 314.156H187.409V340.363H213.59V314.156Z" fill="#353535"/>
<path d="M187.363 314.156H161.182V340.363H187.363V314.156Z" fill="#353535"/>
<path d="M161.181 314.156H135V340.363H161.181V314.156Z" fill="#353535"/>
<path d="M135.047 314.156H108.819V340.363H135.047V314.156Z" fill="#353535"/>
<path d="M108.772 314.156H82.5908V340.363H108.772V314.156Z" fill="#353535"/>
<path d="M108.772 287.949H82.5908V314.109H108.772V287.949Z" fill="#353535"/>
<path d="M108.772 261.789H82.5908V287.949H108.772V261.789Z" fill="#353535"/>
<path d="M108.772 235.629H82.5908V261.789H108.772V235.629Z" fill="#353535"/>
<path d="M135.047 235.629H108.819V261.789H135.047V235.629Z" fill="#353535"/>
<path d="M475.59 209.422H449.409V235.629H475.59V209.422Z" fill="#E4DFE8"/>
<path d="M475.59 183.262H449.409V209.422H475.59V183.262Z" fill="#E4DFE8"/>
<path d="M56.4093 602.105H30.1812V628.312H56.4093V602.105Z" fill="#E4DFE8"/>
<path d="M239.818 628.312H213.59V654.473H239.818V628.312Z" fill="#E4DFE8"/>
<path d="M213.591 628.312H187.41V654.473H213.591V628.312Z" fill="#E4DFE8"/>
<path d="M266 628.312H239.819V654.473H266V628.312Z" fill="#E4DFE8"/>
<path d="M161.181 628.312H135V654.473H161.181V628.312Z" fill="#E4DFE8"/>
<path d="M135.047 628.312H108.819V654.473H135.047V628.312Z" fill="#E4DFE8"/>
<path d="M108.772 628.312H82.5903V654.473H108.772V628.312Z" fill="#E4DFE8"/>
<path d="M82.5904 628.312H56.4092V654.473H82.5904V628.312Z" fill="#E4DFE8"/>
<path d="M187.362 628.312H161.181V654.473H187.362V628.312Z" fill="#E4DFE8"/>
<path d="M423.181 549.738H397V575.898H423.181V549.738Z" fill="#E4DFE8"/>
<path d="M423.181 575.945H397V602.105H423.181V575.945Z" fill="#E4DFE8"/>
<path d="M397 602.105H370.819V628.312H397V602.105Z" fill="#E4DFE8"/>
<path d="M344.637 628.312H318.409V654.473H344.637V628.312Z" fill="#E4DFE8"/>
<path d="M370.772 628.312H344.591V654.473H370.772V628.312Z" fill="#E4DFE8"/>
<path d="M318.362 628.312H292.181V654.473H318.362V628.312Z" fill="#E4DFE8"/>
<path d="M292.181 628.312H266V654.473H292.181V628.312Z" fill="#E4DFE8"/>
<path d="M449.41 523.578H423.182V549.738H449.41V523.578Z" fill="#E4DFE8"/>
<path d="M475.59 471.211H449.409V497.371H475.59V471.211Z" fill="#E4DFE8"/>
<path d="M475.59 445.051H449.409V471.211H475.59V445.051Z" fill="#E4DFE8"/>
<path d="M475.59 497.371H449.409V523.578H475.59V497.371Z" fill="#E4DFE8"/>
<path d="M501.772 418.844H475.591V445.051H501.772V418.844Z" fill="#E4DFE8"/>
<path d="M527.953 366.523H501.772V392.684H527.953V366.523Z" fill="#E4DFE8"/>
<path d="M527.953 340.316H501.772V366.477H527.953V340.316Z" fill="#E4DFE8"/>
<path d="M527.953 392.684H501.772V418.844H527.953V392.684Z" fill="#E4DFE8"/>
<path d="M527.953 287.949H501.772V314.109H527.953V287.949Z" fill="#E4DFE8"/>
<path d="M527.953 314.156H501.772V340.363H527.953V314.156Z" fill="#E4DFE8"/>
<path d="M501.772 209.422H475.591V235.629H501.772V209.422Z" fill="#E4DFE8"/>
<path d="M501.772 183.262H475.591V209.422H501.772V183.262Z" fill="#E4DFE8"/>
<path d="M318.362 130.895H292.181V157.055H318.362V130.895Z" fill="#E4DFE8"/>
<path d="M344.637 130.895H318.409V157.055H344.637V130.895Z" fill="#E4DFE8"/>
<path d="M449.41 130.895H423.182V157.055H449.41V130.895Z" fill="#E4DFE8"/>
<path d="M423.181 130.895H397V157.055H423.181V130.895Z" fill="#E4DFE8"/>
<path d="M397 130.895H370.819V157.055H397V130.895Z" fill="#E4DFE8"/>
<path d="M370.772 130.895H344.591V157.055H370.772V130.895Z" fill="#E4DFE8"/>
<path d="M580.362 418.844H554.181V445.051H580.362V418.844Z" fill="#E4DFE8"/>
<path d="M606.59 445.051H580.409V471.211H606.59V445.051Z" fill="#E4DFE8"/>
<path d="M632.772 471.211H606.59V497.371H632.772V471.211Z" fill="#E4DFE8"/>
<path d="M632.772 497.371H606.59V523.578H632.772V497.371Z" fill="#E4DFE8"/>
<path d="M659 523.578H632.772V549.738H659V523.578Z" fill="#E4DFE8"/>
<path d="M659 549.738H632.772V575.898H659V549.738Z" fill="#E4DFE8"/>
<path d="M659 575.945H632.772V602.105H659V575.945Z" fill="#E4DFE8"/>
<path d="M685.181 602.105H659V628.312H685.181V602.105Z" fill="#E4DFE8"/>
<path d="M685.181 628.312H659V654.473H685.181V628.312Z" fill="#E4DFE8"/>
<path d="M685.181 654.473H659V680.633H685.181V654.473Z" fill="#E4DFE8"/>
<path d="M659 680.633H632.772V706.793H659V680.633Z" fill="#E4DFE8"/>
<path d="M685.181 680.633H659V706.793H685.181V680.633Z" fill="#E4DFE8"/>
<path d="M711.362 602.105H685.181V628.312H711.362V602.105Z" fill="#E4DFE8"/>
<path d="M711.362 654.473H685.181V680.633H711.362V654.473Z" fill="#E4DFE8"/>
<path d="M711.362 628.312H685.181V654.473H711.362V628.312Z" fill="#E4DFE8"/>
<path d="M685.181 575.945H659V602.105H685.181V575.945Z" fill="#E4DFE8"/>
<path d="M685.181 549.738H659V575.898H685.181V549.738Z" fill="#E4DFE8"/>
<path d="M685.181 523.578H659V549.738H685.181V523.578Z" fill="#E4DFE8"/>
<path d="M659 471.211H632.772V497.371H659V471.211Z" fill="#E4DFE8"/>
<path d="M659 497.371H632.772V523.578H659V497.371Z" fill="#E4DFE8"/>
<path d="M632.772 418.844H606.59V445.051H632.772V418.844Z" fill="#E4DFE8"/>
<path d="M632.772 445.051H606.59V471.211H632.772V445.051Z" fill="#E4DFE8"/>
<path d="M606.59 418.844H580.409V445.051H606.59V418.844Z" fill="#E4DFE8"/>
<path d="M580.362 392.684H554.181V418.844H580.362V392.684Z" fill="#E4DFE8"/>
<path d="M580.362 366.523H554.181V392.684H580.362V366.523Z" fill="#E4DFE8"/>
<path d="M239.818 104.734H213.59V130.941H239.818V104.734Z" fill="#531484"/>
<path d="M213.59 157.055H187.409V183.215H213.59V157.055Z" fill="#531484"/>
<path d="M239.818 130.895H213.59V157.055H239.818V130.895Z" fill="#531484"/>
<path d="M737.59 366.523H711.409V392.684H737.59V366.523Z" fill="#531484"/>
<path d="M711.362 366.523H685.181V392.684H711.362V366.523Z" fill="#531484"/>
<path d="M685.181 340.316H659V366.477H685.181V340.316Z" fill="#531484"/>
<path d="M789.953 392.684H763.771V418.844H789.953V392.684Z" fill="#531484"/>
<path d="M763.819 392.684H737.591V418.844H763.819V392.684Z" fill="#531484"/>
<path d="M789.953 366.523H763.771V392.684H789.953V366.523Z" fill="#531484"/>
<path d="M685.181 366.523H659V392.684H685.181V366.523Z" fill="#531484"/>
<path d="M711.362 471.211H685.181V497.371H711.362V471.211Z" fill="#531484"/>
<path d="M711.362 445.051H685.181V471.211H711.362V445.051Z" fill="#531484"/>
<path d="M763.819 418.844H737.591V445.051H763.819V418.844Z" fill="#531484"/>
<path d="M737.59 418.844H711.409V445.051H737.59V418.844Z" fill="#531484"/>
<path d="M711.362 418.844H685.181V445.051H711.362V418.844Z" fill="#531484"/>
<path d="M685.181 392.684H659V418.844H685.181V392.684Z" fill="#531484"/>
<path d="M685.181 418.844H659V445.051H685.181V418.844Z" fill="#531484"/>
<path d="M711.362 523.578H685.181V549.738H711.362V523.578Z" fill="#531484"/>
<path d="M685.181 445.051H659V471.211H685.181V445.051Z" fill="#531484"/>
<path d="M685.181 497.371H659V523.578H685.181V497.371Z" fill="#531484"/>
<path d="M659 418.844H632.771V445.051H659V418.844Z" fill="#531484"/>
<path d="M685.181 471.211H659V497.371H685.181V471.211Z" fill="#531484"/>
<path d="M659 471.211H632.771V497.371H659V471.211Z" fill="#531484"/>
<path d="M659 445.051H632.771V471.211H659V445.051Z" fill="#531484"/>
<path d="M632.771 418.844H606.59V445.051H632.771V418.844Z" fill="#531484"/>
<path d="M554.228 366.523H528V392.684H554.228V366.523Z" fill="#531484"/>
<path d="M554.228 392.684H528V418.844H554.228V392.684Z" fill="#531484"/>
<path d="M632.771 445.051H606.59V471.211H632.771V445.051Z" fill="#531484"/>
<path d="M632.771 471.211H606.59V497.371H632.771V471.211Z" fill="#531484"/>
<path d="M580.362 392.684H554.181V418.844H580.362V392.684Z" fill="#531484"/>
<path d="M580.362 445.051H554.181V471.211H580.362V445.051Z" fill="#531484"/>
<path d="M580.362 418.844H554.181V445.051H580.362V418.844Z" fill="#531484"/>
<path d="M580.362 366.523H554.181V392.684H580.362V366.523Z" fill="#531484"/>
<path d="M554.228 445.051H528V471.211H554.228V445.051Z" fill="#531484"/>
<path d="M527.953 497.371H501.771V523.578H527.953V497.371Z" fill="#531484"/>
<path d="M606.591 445.051H580.409V471.211H606.591V445.051Z" fill="#531484"/>
<path d="M606.591 471.211H580.409V497.371H606.591V471.211Z" fill="#531484"/>
<path d="M606.591 418.844H580.409V445.051H606.591V418.844Z" fill="#531484"/>
<path d="M606.591 392.684H580.409V418.844H606.591V392.684Z" fill="#531484"/>
<path d="M580.362 497.371H554.181V523.578H580.362V497.371Z" fill="#531484"/>
<path d="M580.362 471.211H554.181V497.371H580.362V471.211Z" fill="#531484"/>
<path d="M554.228 497.371H528V523.578H554.228V497.371Z" fill="#531484"/>
<path d="M632.771 392.684H606.59V418.844H632.771V392.684Z" fill="#531484"/>
<path d="M763.819 235.629H737.591V261.789H763.819V235.629Z" fill="#531484"/>
<path d="M737.59 261.789H711.409V287.949H737.59V261.789Z" fill="#531484"/>
<path d="M711.362 287.949H685.181V314.109H711.362V287.949Z" fill="#531484"/>
<path d="M711.362 261.789H685.181V287.949H711.362V261.789Z" fill="#531484"/>
<path d="M711.362 235.629H685.181V261.789H711.362V235.629Z" fill="#531484"/>
<path d="M685.181 314.156H659V340.363H685.181V314.156Z" fill="#531484"/>
<path d="M685.181 287.949H659V314.109H685.181V287.949Z" fill="#531484"/>
<path d="M685.181 261.789H659V287.949H685.181V261.789Z" fill="#531484"/>
<path d="M685.181 235.629H659V261.789H685.181V235.629Z" fill="#531484"/>
<path d="M685.181 183.262H659V209.422H685.181V183.262Z" fill="#531484"/>
<path d="M685.181 157.055H659V183.215H685.181V157.055Z" fill="#531484"/>
<path d="M659 392.684H632.771V418.844H659V392.684Z" fill="#531484"/>
<path d="M659 366.523H632.771V392.684H659V366.523Z" fill="#531484"/>
<path d="M659 340.316H632.771V366.477H659V340.316Z" fill="#531484"/>
<path d="M659 314.156H632.771V340.363H659V314.156Z" fill="#531484"/>
<path d="M659 287.949H632.771V314.109H659V287.949Z" fill="#531484"/>
<path d="M659 261.789H632.771V287.949H659V261.789Z" fill="#531484"/>
<path d="M659 235.629H632.771V261.789H659V235.629Z" fill="#531484"/>
<path d="M659 183.262H632.771V209.422H659V183.262Z" fill="#531484"/>
<path d="M632.771 366.523H606.59V392.684H632.771V366.523Z" fill="#531484"/>
<path d="M632.771 340.316H606.59V366.477H632.771V340.316Z" fill="#531484"/>
<path d="M632.771 314.156H606.59V340.363H632.771V314.156Z" fill="#531484"/>
<path d="M632.771 287.949H606.59V314.109H632.771V287.949Z" fill="#531484"/>
<path d="M632.771 261.789H606.59V287.949H632.771V261.789Z" fill="#531484"/>
<path d="M632.771 235.629H606.59V261.789H632.771V235.629Z" fill="#531484"/>
<path d="M632.771 183.262H606.59V209.422H632.771V183.262Z" fill="#531484"/>
<path d="M606.591 366.523H580.409V392.684H606.591V366.523Z" fill="#531484"/>
<path d="M606.591 340.316H580.409V366.477H606.591V340.316Z" fill="#531484"/>
<path d="M606.591 314.156H580.409V340.363H606.591V314.156Z" fill="#531484"/>
<path d="M606.591 287.949H580.409V314.109H606.591V287.949Z" fill="#531484"/>
<path d="M606.591 261.789H580.409V287.949H606.591V261.789Z" fill="#531484"/>
<path d="M606.591 235.629H580.409V261.789H606.591V235.629Z" fill="#531484"/>
<path d="M606.591 209.422H580.409V235.629H606.591V209.422Z" fill="#531484"/>
<path d="M580.362 340.316H554.181V366.477H580.362V340.316Z" fill="#531484"/>
<path d="M580.362 314.156H554.181V340.363H580.362V314.156Z" fill="#531484"/>
<path d="M580.362 235.629H554.181V261.789H580.362V235.629Z" fill="#531484"/>
<path d="M580.362 209.422H554.181V235.629H580.362V209.422Z" fill="#531484"/>
<path d="M580.362 183.262H554.181V209.422H580.362V183.262Z" fill="#531484"/>
<path d="M580.362 157.055H554.181V183.215H580.362V157.055Z" fill="#531484"/>
<path d="M554.228 314.156H528V340.363H554.228V314.156Z" fill="#531484"/>
<path d="M554.228 209.422H528V235.629H554.228V209.422Z" fill="#531484"/>
<path d="M554.228 183.262H528V209.422H554.228V183.262Z" fill="#531484"/>
<path d="M554.228 157.055H528V183.215H554.228V157.055Z" fill="#531484"/>
<path d="M554.228 130.895H528V157.055H554.228V130.895Z" fill="#531484"/>
<path d="M527.953 209.422H501.771V235.629H527.953V209.422Z" fill="#531484"/>
<path d="M527.953 183.262H501.771V209.422H527.953V183.262Z" fill="#531484"/>
<path d="M527.953 157.055H501.771V183.215H527.953V157.055Z" fill="#531484"/>
<path d="M475.59 78.5273H449.409V104.688H475.59V78.5273Z" fill="#531484"/>
<path d="M449.409 104.734H423.181V130.941H449.409V104.734Z" fill="#531484"/>
<path d="M449.409 78.5273H423.181V104.688H449.409V78.5273Z" fill="#531484"/>
<path d="M423.181 104.734H397V130.941H423.181V104.734Z" fill="#531484"/>
<path d="M423.181 78.5273H397V104.688H423.181V78.5273Z" fill="#531484"/>
<path d="M397 130.895H370.818V157.055H397V130.895Z" fill="#531484"/>
<path d="M397 104.734H370.818V130.941H397V104.734Z" fill="#531484"/>
<path d="M397 78.5273H370.818V104.688H397V78.5273Z" fill="#531484"/>
<path d="M370.772 209.422H344.59V235.629H370.772V209.422Z" fill="#531484"/>
<path d="M370.772 130.895H344.59V157.055H370.772V130.895Z" fill="#531484"/>
<path d="M370.772 104.734H344.59V130.941H370.772V104.734Z" fill="#531484"/>
<path d="M370.772 78.5273H344.59V104.688H370.772V78.5273Z" fill="#531484"/>
<path d="M344.637 209.422H318.409V235.629H344.637V209.422Z" fill="#531484"/>
<path d="M344.637 183.262H318.409V209.422H344.637V183.262Z" fill="#531484"/>
<path d="M344.637 130.895H318.409V157.055H344.637V130.895Z" fill="#531484"/>
<path d="M344.637 104.734H318.409V130.941H344.637V104.734Z" fill="#531484"/>
<path d="M318.362 209.422H292.181V235.629H318.362V209.422Z" fill="#531484"/>
<path d="M318.362 183.262H292.181V209.422H318.362V183.262Z" fill="#531484"/>
<path d="M318.362 157.055H292.181V183.215H318.362V157.055Z" fill="#531484"/>
<path d="M318.362 130.895H292.181V157.055H318.362V130.895Z" fill="#531484"/>
<path d="M318.362 104.734H292.181V130.941H318.362V104.734Z" fill="#531484"/>
<path d="M292.181 183.262H266V209.422H292.181V183.262Z" fill="#531484"/>
<path d="M292.181 157.055H266V183.215H292.181V157.055Z" fill="#531484"/>
<path d="M292.181 130.895H266V157.055H292.181V130.895Z" fill="#531484"/>
<path d="M266 183.262H239.818V209.422H266V183.262Z" fill="#531484"/>
<path d="M266 157.055H239.818V183.215H266V157.055Z" fill="#531484"/>
<path d="M266 130.895H239.818V157.055H266V130.895Z" fill="#531484"/>
<path d="M580.363 261.789H554.182V287.949H580.363V261.789Z" fill="#232323"/>
<path d="M580.363 287.949H554.182V314.109H580.363V287.949Z" fill="#232323"/>
<path d="M554.229 287.949H528V314.109H554.229V287.949Z" fill="#232323"/>
<path d="M554.229 261.789H528V287.949H554.229V261.789Z" fill="#232323"/>
<path d="M554.229 235.629H528V261.789H554.229V235.629Z" fill="#232323"/>
<path d="M527.953 261.789H501.772V287.949H527.953V261.789Z" fill="#232323"/>
<path d="M527.953 235.629H501.772V261.789H527.953V235.629Z" fill="#232323"/>
<path d="M501.772 261.789H475.591V287.949H501.772V261.789Z" fill="#232323"/>
<path d="M501.772 235.629H475.591V261.789H501.772V235.629Z" fill="#232323"/>
<path d="M475.591 235.629H449.41V261.789H475.591V235.629Z" fill="#232323"/>
<path d="M475.591 261.789H449.41V287.949H475.591V261.789Z" fill="#232323"/>
<path d="M475.591 287.949H449.41V314.109H475.591V287.949Z" fill="#232323"/>
<path d="M475.591 314.156H449.41V340.363H475.591V314.156Z" fill="#232323"/>
<path d="M449.409 340.316H423.181V366.477H449.409V340.316Z" fill="#232323"/>
<path d="M763.819 392.684H737.591V418.844H763.819V392.684Z" fill="#812DA5"/>
<path d="M763.819 235.629H737.591V261.789H763.819V235.629Z" fill="#812DA5"/>
<path d="M737.59 418.844H711.409V445.051H737.59V418.844Z" fill="#812DA5"/>
<path d="M737.59 261.789H711.409V287.949H737.59V261.789Z" fill="#812DA5"/>
<path d="M711.363 445.051H685.182V471.211H711.363V445.051Z" fill="#812DA5"/>
<path d="M711.363 287.949H685.182V314.109H711.363V287.949Z" fill="#812DA5"/>
<path d="M711.363 235.629H685.182V261.789H711.363V235.629Z" fill="#812DA5"/>
<path d="M685.181 471.211H659V497.371H685.181V471.211Z" fill="#812DA5"/>
<path d="M685.181 445.051H659V471.211H685.181V445.051Z" fill="#812DA5"/>
<path d="M685.181 392.684H659V418.844H685.181V392.684Z" fill="#812DA5"/>
<path d="M685.181 366.523H659V392.684H685.181V366.523Z" fill="#812DA5"/>
<path d="M685.181 340.316H659V366.477H685.181V340.316Z" fill="#812DA5"/>
<path d="M685.181 314.156H659V340.363H685.181V314.156Z" fill="#812DA5"/>
<path d="M685.181 261.789H659V287.949H685.181V261.789Z" fill="#812DA5"/>
<path d="M685.181 235.629H659V261.789H685.181V235.629Z" fill="#812DA5"/>
<path d="M685.181 157.055H659V183.215H685.181V157.055Z" fill="#812DA5"/>
<path d="M659.001 471.211H632.772V497.371H659.001V471.211Z" fill="#812DA5"/>
<path d="M659.001 445.051H632.772V471.211H659.001V445.051Z" fill="#812DA5"/>
<path d="M659.001 418.844H632.772V445.051H659.001V418.844Z" fill="#812DA5"/>
<path d="M659.001 366.523H632.772V392.684H659.001V366.523Z" fill="#812DA5"/>
<path d="M659.001 314.156H632.772V340.363H659.001V314.156Z" fill="#812DA5"/>
<path d="M659.001 261.789H632.772V287.949H659.001V261.789Z" fill="#812DA5"/>
<path d="M659.001 235.629H632.772V261.789H659.001V235.629Z" fill="#812DA5"/>
<path d="M659.001 183.262H632.772V209.422H659.001V183.262Z" fill="#812DA5"/>
<path d="M632.772 471.211H606.591V497.371H632.772V471.211Z" fill="#812DA5"/>
<path d="M632.772 418.844H606.591V445.051H632.772V418.844Z" fill="#812DA5"/>
<path d="M632.772 366.523H606.591V392.684H632.772V366.523Z" fill="#812DA5"/>
<path d="M632.772 340.316H606.591V366.477H632.772V340.316Z" fill="#812DA5"/>
<path d="M632.772 314.156H606.591V340.363H632.772V314.156Z" fill="#812DA5"/>
<path d="M632.772 235.629H606.591V261.789H632.772V235.629Z" fill="#812DA5"/>
<path d="M632.772 183.262H606.591V209.422H632.772V183.262Z" fill="#812DA5"/>
<path d="M606.591 471.211H580.41V497.371H606.591V471.211Z" fill="#812DA5"/>
<path d="M606.591 418.844H580.41V445.051H606.591V418.844Z" fill="#812DA5"/>
<path d="M606.591 392.684H580.41V418.844H606.591V392.684Z" fill="#812DA5"/>
<path d="M606.591 340.316H580.41V366.477H606.591V340.316Z" fill="#812DA5"/>
<path d="M606.591 287.949H580.41V314.109H606.591V287.949Z" fill="#812DA5"/>
<path d="M606.591 261.789H580.41V287.949H606.591V261.789Z" fill="#812DA5"/>
<path d="M606.591 235.629H580.41V261.789H606.591V235.629Z" fill="#812DA5"/>
<path d="M606.591 209.422H580.41V235.629H606.591V209.422Z" fill="#812DA5"/>
<path d="M580.363 471.211H554.182V497.371H580.363V471.211Z" fill="#812DA5"/>
<path d="M580.363 445.051H554.182V471.211H580.363V445.051Z" fill="#812DA5"/>
<path d="M580.363 392.684H554.182V418.844H580.363V392.684Z" fill="#812DA5"/>
<path d="M580.363 366.523H554.182V392.684H580.363V366.523Z" fill="#812DA5"/>
<path d="M580.363 340.316H554.182V366.477H580.363V340.316Z" fill="#812DA5"/>
<path d="M580.363 314.156H554.182V340.363H580.363V314.156Z" fill="#812DA5"/>
<path d="M580.363 235.629H554.182V261.789H580.363V235.629Z" fill="#812DA5"/>
<path d="M580.363 183.262H554.182V209.422H580.363V183.262Z" fill="#812DA5"/>
<path d="M580.363 157.055H554.182V183.215H580.363V157.055Z" fill="#812DA5"/>
<path d="M554.229 366.523H528V392.684H554.229V366.523Z" fill="#812DA5"/>
<path d="M554.229 314.156H528V340.363H554.229V314.156Z" fill="#812DA5"/>
<path d="M554.229 209.422H528V235.629H554.229V209.422Z" fill="#812DA5"/>
<path d="M554.229 157.055H528V183.215H554.229V157.055Z" fill="#812DA5"/>
<path d="M554.229 130.895H528V157.055H554.229V130.895Z" fill="#812DA5"/>
<path d="M527.953 209.422H501.772V235.629H527.953V209.422Z" fill="#812DA5"/>
<path d="M475.591 78.5273H449.41V104.688H475.591V78.5273Z" fill="#812DA5"/>
<path d="M449.409 104.734H423.181V130.941H449.409V104.734Z" fill="#812DA5"/>
<path d="M449.409 78.5273H423.181V104.688H449.409V78.5273Z" fill="#812DA5"/>
<path d="M423.182 130.895H397V157.055H423.182V130.895Z" fill="#812DA5"/>
<path d="M423.182 78.5273H397V104.688H423.182V78.5273Z" fill="#812DA5"/>
<path d="M397 287.949H370.819V314.109H397V287.949Z" fill="white"/>
<path d="M397 130.895H370.819V157.055H397V130.895Z" fill="#812DA5"/>
<path d="M397 78.5273H370.819V104.688H397V78.5273Z" fill="#812DA5"/>
<path d="M370.772 261.789H344.591V287.949H370.772V261.789Z" fill="white"/>
<path d="M370.772 209.422H344.591V235.629H370.772V209.422Z" fill="#812DA5"/>
<path d="M370.772 78.5273H344.591V104.688H370.772V78.5273Z" fill="#812DA5"/>
<path d="M344.638 287.949H318.41V314.109H344.638V287.949Z" fill="white"/>
<path d="M344.638 183.262H318.41V209.422H344.638V183.262Z" fill="#812DA5"/>
<path d="M344.638 104.734H318.41V130.941H344.638V104.734Z" fill="#812DA5"/>
<path d="M318.363 261.789H292.182V287.949H318.363V261.789Z" fill="white"/>
<path d="M318.363 157.055H292.182V183.215H318.363V157.055Z" fill="#812DA5"/>
<path d="M318.363 104.734H292.182V130.941H318.363V104.734Z" fill="#812DA5"/>
<path d="M292.181 130.895H266V157.055H292.181V130.895Z" fill="#812DA5"/>
<path d="M266.001 314.156H239.819V340.363H266.001V314.156Z" fill="#232323"/>
<path d="M266.001 287.949H239.819V314.109H266.001V287.949Z" fill="#232323"/>
<path d="M266.001 183.262H239.819V209.422H266.001V183.262Z" fill="#812DA5"/>
<path d="M266.001 157.055H239.819V183.215H266.001V157.055Z" fill="#812DA5"/>
<path d="M266.001 130.895H239.819V157.055H266.001V130.895Z" fill="#812DA5"/>
<path d="M239.819 340.316H213.591V366.477H239.819V340.316Z" fill="#232323"/>
<path d="M187.363 287.949H161.182V314.109H187.363V287.949Z" fill="white"/>
<path d="M161.181 261.789H135V287.949H161.181V261.789Z" fill="white"/>
<path d="M135.047 287.949H108.819V314.109H135.047V287.949Z" fill="white"/>
<path d="M108.772 261.789H82.5908V287.949H108.772V261.789Z" fill="white"/>
<path d="M292.181 0H266V26.207H292.181V0Z" fill="#C40F06"/>
<path d="M292.181 26.207H266V52.3672H292.181V26.207Z" fill="#C40F06"/>
<path d="M292.181 52.3672H266V78.5273H292.181V52.3672Z" fill="#C40F06"/>
<path d="M318.362 52.3672H292.181V78.5273H318.362V52.3672Z" fill="#E0C70E"/>
<path d="M292.181 78.5273H266V104.688H292.181V78.5273Z" fill="#E0C70E"/>
<path d="M318.362 78.5273H292.181V104.688H318.362V78.5273Z" fill="#3FAA00"/>
<path d="M292.181 104.734H266V130.941H292.181V104.734Z" fill="#3FAA00"/>
<path d="M318.362 104.734H292.181V130.941H318.362V104.734Z" fill="#00B6C4"/>
<path d="M292.181 130.895H266V157.055H292.181V130.895Z" fill="#00B6C4"/>
<path d="M318.362 130.895H292.181V157.055H318.362V130.895Z" fill="#0054CE"/>
<path d="M292.181 157.055H266V183.215H292.181V157.055Z" fill="#0054CE"/>
<path d="M318.362 157.055H292.181V183.215H318.362V157.055Z" fill="#6400CE"/>
</g>
<defs>
<filter id="filter0_d_2040_3997" x="0" y="0" width="794" height="741" filterUnits="userSpaceOnUse" color-interpolation-filters="sRGB">
<feFlood flood-opacity="0" result="BackgroundImageFix"/>
<feColorMatrix in="SourceAlpha" type="matrix" values="0 0 0 0 0 0 0 0 0 0 0 0 0 0 0 0 0 0 127 0" result="hardAlpha"/>
<feOffset dy="4"/>
<feGaussianBlur stdDeviation="2"/>
<feComposite in2="hardAlpha" operator="out"/>
<feColorMatrix type="matrix" values="0 0 0 0 0 0 0 0 0 0 0 0 0 0 0 0 0 0 0.25 0"/>
<feBlend mode="normal" in2="BackgroundImageFix" result="effect1_dropShadow_2040_3997"/>
<feBlend mode="normal" in="SourceGraphic" in2="effect1_dropShadow_2040_3997" result="shape"/>
</filter>
<clipPath id="clip0_2040_3997">
<rect width="786" height="733" fill="white" transform="translate(4)"/>
</clipPath>
</defs>
</svg>
