<svg width="70" height="81" viewBox="0 0 70 81" fill="none" xmlns="http://www.w3.org/2000/svg">
<g clip-path="url(#clip0_46_1056)">
<path d="M20.0001 75.9375H5.00012V81H20.0001V75.9375Z" fill="#F7FEFF"/>
<path d="M20.0001 45.5625H15.0001V70.875H10.0001V15.1875H20.0001V10.125H5.00012V75.9375H20.0001V45.5625Z" fill="#231E2B"/>
<path d="M5 10.125H0V75.9375H5V10.125Z" fill="#F7FEFF"/>
<path d="M45 55.6875H35V60.75H45V55.6875Z" fill="#F7FEFF"/>
<path d="M49.9998 50.625H44.9998V55.6875H49.9998V50.625Z" fill="#F7FEFF"/>
<path d="M45 50.625H35V55.6875H45V50.625Z" fill="#231E2B"/>
<path d="M34.9999 50.625H29.9999V55.6875H34.9999V50.625Z" fill="#F7FEFF"/>
<path d="M14.9998 50.625H9.99976V70.875H14.9998V50.625Z" fill="#E2B436"/>
<path d="M64.9999 45.5625H49.9999V50.625H64.9999V45.5625Z" fill="#F7FEFF"/>
<path d="M49.9998 45.5625H44.9998V50.625H49.9998V45.5625Z" fill="#231E2B"/>
<path d="M45 45.5625H35V50.625H45V45.5625Z" fill="#892727"/>
<path d="M34.9999 45.5625H29.9999V50.625H34.9999V45.5625Z" fill="#231E2B"/>
<path d="M20.0001 45.5625V75.9375H25.0001V50.625H30.0001V45.5625H20.0001Z" fill="#F7FEFF"/>
<path d="M14.9998 45.5625H9.99976V50.625H14.9998V45.5625Z" fill="#CF8934"/>
<path d="M49.9998 40.5H44.9998V45.5625H49.9998V40.5Z" fill="#892727"/>
<path d="M34.9999 40.5H29.9999V45.5625H34.9999V40.5Z" fill="#892727"/>
<path d="M30.0001 40.5H20.0001V45.5625H30.0001V40.5Z" fill="#231E2B"/>
<path d="M19.9999 40.5H14.9999V45.5625H19.9999V40.5Z" fill="#892727"/>
<path d="M69.9999 30.375H64.9999V45.5625H69.9999V30.375Z" fill="#F7FEFF"/>
<path d="M49.9999 35.4375V20.25H44.9999V25.3125H34.9999V20.25H29.9999V35.4375H19.9999V20.25H14.9999V40.5H34.9999V45.5625H44.9999V40.5H59.9999V35.4375H49.9999Z" fill="#9A2D2D"/>
<path d="M14.9998 15.1875H9.99976V45.5625H14.9998V15.1875Z" fill="#CF6B55"/>
<path d="M59.9999 40.5H49.9999V45.5625H64.9999V30.375H59.9999V40.5Z" fill="#231E2B"/>
<path d="M65.0002 20.25H60.0002V30.375H65.0002V20.25Z" fill="#F7FEFF"/>
<path d="M60.0001 20.25H55.0001V30.375H60.0001V20.25Z" fill="#231E2B"/>
<path d="M45 20.25H35V25.3125H45V20.25Z" fill="#B0392E"/>
<path d="M49.9998 20.25V35.4375H59.9998V30.375H54.9998V20.25H59.9998V15.1875H44.9998V20.25H49.9998Z" fill="#B0392E"/>
<path d="M45 15.1875H35V20.25H45V15.1875Z" fill="#231E2B"/>
<path d="M14.9999 15.1875V20.25H19.9999V35.4375H29.9999V20.25H34.9999V15.1875H14.9999Z" fill="#B0392E"/>
<path d="M69.9999 5.0625H64.9999V20.25H69.9999V5.0625Z" fill="#F7FEFF"/>
<path d="M59.9999 10.125H49.9999V15.1875H59.9999V10.125Z" fill="#CF6B55"/>
<path d="M49.9998 10.125H44.9998V15.1875H49.9998V10.125Z" fill="#231E2B"/>
<path d="M45 10.125H35V15.1875H45V10.125Z" fill="#F7FEFF"/>
<path d="M34.9999 10.125H29.9999V15.1875H34.9999V10.125Z" fill="#231E2B"/>
<path d="M30.0001 10.125H20.0001V15.1875H30.0001V10.125Z" fill="#CF6B55"/>
<path d="M59.9999 10.125V20.25H64.9999V5.0625H49.9999V10.125H59.9999Z" fill="#231E2B"/>
<path d="M49.9998 5.0625H44.9998V10.125H49.9998V5.0625Z" fill="#F7FEFF"/>
<path d="M34.9999 5.0625H29.9999V10.125H34.9999V5.0625Z" fill="#F7FEFF"/>
<path d="M30.0001 5.0625H20.0001V10.125H30.0001V5.0625Z" fill="#231E2B"/>
<path d="M20.0001 5.0625H5.00012V10.125H20.0001V5.0625Z" fill="#F7FEFF"/>
<path d="M64.9999 0H49.9999V5.0625H64.9999V0Z" fill="#F7FEFF"/>
<path d="M30.0001 0H20.0001V5.0625H30.0001V0Z" fill="#F7FEFF"/>
</g>
<defs>
<clipPath id="clip0_46_1056">
<rect width="70" height="81" fill="white"/>
</clipPath>
</defs>
</svg>
