<svg width="78" height="78" viewBox="0 0 78 78" fill="none" xmlns="http://www.w3.org/2000/svg">
<g filter="url(#filter0_d_46_1055)">
<path d="M69.625 65.625H8.375V70H69.625V65.625Z" fill="#F7FEFF"/>
<path d="M69.625 52.5H65.25V61.25H12.75V52.5H8.375V65.625H69.625V52.5Z" fill="#231E2B"/>
<path d="M8.375 52.5H4V65.625H8.375V52.5Z" fill="#F7FEFF"/>
<path d="M74 52.5H69.625V65.625H74V52.5Z" fill="#F7FEFF"/>
<path d="M69.625 48.125H65.25V52.5H69.625V48.125Z" fill="#F7FEFF"/>
<path d="M65.25 48.125H60.875V52.5H65.25V48.125Z" fill="#231E2B"/>
<path d="M60.875 48.125H52.125V52.5H47.75V48.125H39V52.5H34.625V48.125H30.25V52.5H25.875V48.125H17.125V52.5H12.75V61.25H65.25V52.5H60.875V48.125Z" fill="#B6B7B8"/>
<path d="M52.125 48.125H47.75V52.5H52.125V48.125Z" fill="#998B8C"/>
<path d="M39 48.125H34.625V52.5H39V48.125Z" fill="#998B8C"/>
<path d="M30.25 48.125H25.875V52.5H30.25V48.125Z" fill="#998B8C"/>
<path d="M17.125 48.125H12.75V52.5H17.125V48.125Z" fill="#231E2B"/>
<path d="M12.75 48.125H8.375V52.5H12.75V48.125Z" fill="#F7FEFF"/>
<path d="M65.25 43.75H60.875V48.125H65.25V43.75Z" fill="#F7FEFF"/>
<path d="M60.875 43.75H56.5V48.125H60.875V43.75Z" fill="#231E2B"/>
<path d="M56.5 43.75H52.125V48.125H56.5V43.75Z" fill="#998B8C"/>
<path d="M47.75 43.75H39V48.125H47.75V43.75Z" fill="#998B8C"/>
<path d="M34.625 43.75H30.25V48.125H34.625V43.75Z" fill="#998B8C"/>
<path d="M30.25 48.125V43.75H34.625V48.125H39V43.75H47.75V48.125H52.125V39.375H47.75V35H43.375V30.625H34.625V35H30.25V39.375H25.875V48.125H30.25Z" fill="#F7FEFF"/>
<path d="M25.875 43.75H21.5V48.125H25.875V43.75Z" fill="#998B8C"/>
<path d="M21.5 43.75H17.125V48.125H21.5V43.75Z" fill="#231E2B"/>
<path d="M17.125 43.75H12.75V48.125H17.125V43.75Z" fill="#F7FEFF"/>
<path d="M60.875 39.375H56.5V43.75H60.875V39.375Z" fill="#F7FEFF"/>
<path d="M56.5 39.375H52.125V43.75H56.5V39.375Z" fill="#231E2B"/>
<path d="M25.875 39.375H21.5V43.75H25.875V39.375Z" fill="#231E2B"/>
<path d="M21.5 39.375H17.125V43.75H21.5V39.375Z" fill="#F7FEFF"/>
<path d="M56.5 35H52.125V39.375H56.5V35Z" fill="#F7FEFF"/>
<path d="M52.125 35H47.75V39.375H52.125V35Z" fill="#231E2B"/>
<path d="M30.25 35H25.875V39.375H30.25V35Z" fill="#231E2B"/>
<path d="M25.875 35H21.5V39.375H25.875V35Z" fill="#F7FEFF"/>
<path d="M52.125 30.625H47.75V35H52.125V30.625Z" fill="#F7FEFF"/>
<path d="M47.75 30.625H43.375V35H47.75V30.625Z" fill="#231E2B"/>
<path d="M30.25 4.375H25.875V35H30.25V4.375Z" fill="#F7FEFF"/>
<path d="M39 26.25H34.625V30.625H39V26.25Z" fill="#CF8934"/>
<path d="M43.375 21.875V30.625H47.75V26.25H52.125V21.875H43.375Z" fill="#F7FEFF"/>
<path d="M39 17.5H34.625V26.25H39V17.5Z" fill="#E2B436"/>
<path d="M47.75 8.75H39V17.5H47.75V8.75Z" fill="#B0392E"/>
<path d="M39 8.75H34.625V17.5H39V8.75Z" fill="#892727"/>
<path d="M56.5 4.375H52.125V21.875H56.5V4.375Z" fill="#F7FEFF"/>
<path d="M30.25 35H34.625V8.75H47.75V17.5H39V30.625H43.375V21.875H52.125V4.375H30.25V35Z" fill="#231E2B"/>
<path d="M52.125 0H30.25V4.375H52.125V0Z" fill="#F7FEFF"/>
</g>
<defs>
<filter id="filter0_d_46_1055" x="0" y="0" width="78" height="78" filterUnits="userSpaceOnUse" color-interpolation-filters="sRGB">
<feFlood flood-opacity="0" result="BackgroundImageFix"/>
<feColorMatrix in="SourceAlpha" type="matrix" values="0 0 0 0 0 0 0 0 0 0 0 0 0 0 0 0 0 0 127 0" result="hardAlpha"/>
<feOffset dy="4"/>
<feGaussianBlur stdDeviation="2"/>
<feComposite in2="hardAlpha" operator="out"/>
<feColorMatrix type="matrix" values="0 0 0 0 0 0 0 0 0 0 0 0 0 0 0 0 0 0 0.25 0"/>
<feBlend mode="normal" in2="BackgroundImageFix" result="effect1_dropShadow_46_1055"/>
<feBlend mode="normal" in="SourceGraphic" in2="effect1_dropShadow_46_1055" result="shape"/>
</filter>
</defs>
</svg>
