<svg width="345" height="322" viewBox="0 0 345 322" fill="none" xmlns="http://www.w3.org/2000/svg">
<g clip-path="url(#clip0_2040_6930)">
<path d="M310.482 287.504H298.99V298.996H310.482V287.504Z" fill="white"/>
<path d="M310.482 276.013H298.99V287.505H310.482V276.013Z" fill="white"/>
<path d="M310.482 264.5H298.99V276.012H310.482V264.5Z" fill="white"/>
<path d="M298.992 298.996H287.5V310.488H298.992V298.996Z" fill="white"/>
<path d="M298.992 287.504H287.5V298.996H298.992V287.504Z" fill="white"/>
<path d="M298.992 276.013H287.5V287.505H298.992V276.013Z" fill="white"/>
<path d="M298.992 264.5H287.5V276.012H298.992V264.5Z" fill="white"/>
<path d="M298.992 253.008H287.5V264.5H298.992V253.008Z" fill="white"/>
<path d="M298.992 241.495H287.5V252.987H298.992V241.495Z" fill="white"/>
<path d="M298.992 230.004H287.5V241.496H298.992V230.004Z" fill="white"/>
<path d="M287.499 298.996H275.987V310.488H287.499V298.996Z" fill="white"/>
<path d="M287.499 287.504H275.987V298.996H287.499V287.504Z" fill="white"/>
<path d="M287.499 276.013H275.987V287.505H287.499V276.013Z" fill="white"/>
<path d="M287.499 264.5H275.987V276.012H287.499V264.5Z" fill="white"/>
<path d="M287.499 253.008H275.987V264.5H287.499V253.008Z" fill="white"/>
<path d="M287.499 241.495H275.987V252.987H287.499V241.495Z" fill="white"/>
<path d="M287.499 230.004H275.987V241.496H287.499V230.004Z" fill="white"/>
<path d="M287.499 218.491H275.987V230.004H287.499V218.491Z" fill="white"/>
<path d="M287.499 206.999H275.987V218.491H287.499V206.999Z" fill="white"/>
<path d="M275.986 310.509H264.494V322.021H275.986V310.509Z" fill="white"/>
<path d="M275.986 298.996H264.494V310.488H275.986V298.996Z" fill="white"/>
<path d="M275.986 287.504H264.494V298.996H275.986V287.504Z" fill="white"/>
<path d="M275.986 276.013H264.494V287.505H275.986V276.013Z" fill="white"/>
<path d="M275.986 264.5H264.494V276.012H275.986V264.5Z" fill="white"/>
<path d="M275.986 253.008H264.494V264.5H275.986V253.008Z" fill="white"/>
<path d="M275.986 241.495H264.494V252.987H275.986V241.495Z" fill="white"/>
<path d="M275.986 230.004H264.494V241.496H275.986V230.004Z" fill="white"/>
<path d="M275.986 218.491H264.494V230.004H275.986V218.491Z" fill="white"/>
<path d="M275.986 206.999H264.494V218.491H275.986V206.999Z" fill="white"/>
<path d="M275.986 195.507H264.494V206.999H275.986V195.507Z" fill="white"/>
<path d="M275.986 183.994H264.494V195.507H275.986V183.994Z" fill="white"/>
<path d="M264.495 310.509H253.003V322.021H264.495V310.509Z" fill="white"/>
<path d="M264.495 298.996H253.003V310.488H264.495V298.996Z" fill="white"/>
<path d="M264.495 287.504H253.003V298.996H264.495V287.504Z" fill="white"/>
<path d="M264.495 276.013H253.003V287.505H264.495V276.013Z" fill="white"/>
<path d="M264.495 264.5H253.003V276.012H264.495V264.5Z" fill="white"/>
<path d="M264.495 253.008H253.003V264.5H264.495V253.008Z" fill="white"/>
<path d="M264.495 241.495H253.003V252.987H264.495V241.495Z" fill="white"/>
<path d="M264.495 230.004H253.003V241.496H264.495V230.004Z" fill="white"/>
<path d="M264.495 218.491H253.003V230.004H264.495V218.491Z" fill="white"/>
<path d="M264.495 206.999H253.003V218.491H264.495V206.999Z" fill="white"/>
<path d="M264.495 195.507H253.003V206.999H264.495V195.507Z" fill="white"/>
<path d="M264.495 183.994H253.003V195.507H264.495V183.994Z" fill="white"/>
<path d="M252.982 310.509H241.49V322.021H252.982V310.509Z" fill="white"/>
<path d="M252.982 298.996H241.49V310.488H252.982V298.996Z" fill="white"/>
<path d="M252.982 287.504H241.49V298.996H252.982V287.504Z" fill="white"/>
<path d="M252.982 276.013H241.49V287.505H252.982V276.013Z" fill="white"/>
<path d="M252.982 264.5H241.49V276.012H252.982V264.5Z" fill="white"/>
<path d="M252.982 253.008H241.49V264.5H252.982V253.008Z" fill="white"/>
<path d="M252.982 241.495H241.49V252.987H252.982V241.495Z" fill="white"/>
<path d="M252.982 230.004H241.49V241.496H252.982V230.004Z" fill="white"/>
<path d="M252.982 218.491H241.49V230.004H252.982V218.491Z" fill="white"/>
<path d="M252.982 206.999H241.49V218.491H252.982V206.999Z" fill="white"/>
<path d="M252.982 195.507H241.49V206.999H252.982V195.507Z" fill="white"/>
<path d="M252.982 183.994H241.49V195.507H252.982V183.994Z" fill="white"/>
<path d="M252.982 172.503H241.49V183.995H252.982V172.503Z" fill="white"/>
<path d="M252.982 161.011H241.49V172.503H252.982V161.011Z" fill="white"/>
<path d="M241.512 310.509H230V322.021H241.512V310.509Z" fill="white"/>
<path d="M241.512 298.996H230V310.488H241.512V298.996Z" fill="white"/>
<path d="M241.512 287.504H230V298.996H241.512V287.504Z" fill="white"/>
<path d="M241.512 276.013H230V287.505H241.512V276.013Z" fill="white"/>
<path d="M241.512 264.5H230V276.012H241.512V264.5Z" fill="white"/>
<path d="M241.512 253.008H230V264.5H241.512V253.008Z" fill="white"/>
<path d="M241.512 241.495H230V252.987H241.512V241.495Z" fill="white"/>
<path d="M241.512 230.004H230V241.496H241.512V230.004Z" fill="white"/>
<path d="M241.512 218.491H230V230.004H241.512V218.491Z" fill="white"/>
<path d="M241.512 206.999H230V218.491H241.512V206.999Z" fill="white"/>
<path d="M241.512 195.507H230V206.999H241.512V195.507Z" fill="white"/>
<path d="M241.512 183.994H230V195.507H241.512V183.994Z" fill="#E2D7D7"/>
<path d="M241.512 172.503H230V183.995H241.512V172.503Z" fill="#E2D7D7"/>
<path d="M241.512 161.011H230V172.503H241.512V161.011Z" fill="#E2D7D7"/>
<path d="M241.512 149.498H230V160.99H241.512V149.498Z" fill="#E2D7D7"/>
<path d="M241.512 46.0098H230V57.5223H241.512V46.0098Z" fill="#FFC0C0"/>
<path d="M241.512 34.4971H230V45.989H241.512V34.4971Z" fill="white"/>
<path d="M241.512 23.0049H230V34.4968H241.512V23.0049Z" fill="white"/>
<path d="M229.979 310.509H218.487V322.021H229.979V310.509Z" fill="white"/>
<path d="M229.979 298.996H218.487V310.488H229.979V298.996Z" fill="white"/>
<path d="M229.979 287.504H218.487V298.996H229.979V287.504Z" fill="white"/>
<path d="M229.979 276.013H218.487V287.505H229.979V276.013Z" fill="white"/>
<path d="M229.979 264.5H218.487V276.012H229.979V264.5Z" fill="white"/>
<path d="M229.979 253.008H218.487V264.5H229.979V253.008Z" fill="white"/>
<path d="M229.979 241.495H218.487V252.987H229.979V241.495Z" fill="white"/>
<path d="M229.979 230.004H218.487V241.496H229.979V230.004Z" fill="white"/>
<path d="M229.979 218.491H218.487V230.004H229.979V218.491Z" fill="white"/>
<path d="M229.979 206.999H218.487V218.491H229.979V206.999Z" fill="#E2D7D7"/>
<path d="M229.979 195.507H218.487V206.999H229.979V195.507Z" fill="#E2D7D7"/>
<path d="M229.979 183.994H218.487V195.507H229.979V183.994Z" fill="#E2D7D7"/>
<path d="M229.979 172.503H218.487V183.995H229.979V172.503Z" fill="white"/>
<path d="M229.979 161.011H218.487V172.503H229.979V161.011Z" fill="white"/>
<path d="M229.979 149.498H218.487V160.99H229.979V149.498Z" fill="white"/>
<path d="M229.979 138.006H218.487V149.518H229.979V138.006Z" fill="white"/>
<path d="M229.979 126.494H218.487V137.986H229.979V126.494Z" fill="white"/>
<path d="M229.979 115.002H218.487V126.494H229.979V115.002Z" fill="white"/>
<path d="M229.979 57.501H218.487V68.9929H229.979V57.501Z" fill="#FFC0C0"/>
<path d="M229.979 46.0098H218.487V57.5223H229.979V46.0098Z" fill="#FFC0C0"/>
<path d="M229.979 34.4971H218.487V45.989H229.979V34.4971Z" fill="white"/>
<path d="M218.486 310.509H206.994V322.021H218.486V310.509Z" fill="white"/>
<path d="M218.486 298.996H206.994V310.488H218.486V298.996Z" fill="white"/>
<path d="M218.486 287.504H206.994V298.996H218.486V287.504Z" fill="white"/>
<path d="M218.486 276.013H206.994V287.505H218.486V276.013Z" fill="white"/>
<path d="M218.486 264.5H206.994V276.012H218.486V264.5Z" fill="white"/>
<path d="M218.486 253.008H206.994V264.5H218.486V253.008Z" fill="white"/>
<path d="M218.486 241.495H206.994V252.987H218.486V241.495Z" fill="#E2D7D7"/>
<path d="M218.486 230.004H206.994V241.496H218.486V230.004Z" fill="#E2D7D7"/>
<path d="M218.486 218.491H206.994V230.004H218.486V218.491Z" fill="#E2D7D7"/>
<path d="M218.486 206.999H206.994V218.491H218.486V206.999Z" fill="#E2D7D7"/>
<path d="M218.486 195.507H206.994V206.999H218.486V195.507Z" fill="#E2D7D7"/>
<path d="M218.486 183.994H206.994V195.507H218.486V183.994Z" fill="#E2D7D7"/>
<path d="M218.486 68.9932H206.994V80.4851H218.486V68.9932Z" fill="#FFC0C0"/>
<path d="M218.486 57.501H206.994V68.9929H218.486V57.501Z" fill="#FFC0C0"/>
<path d="M218.486 46.0098H206.994V57.5223H218.486V46.0098Z" fill="white"/>
<path d="M218.486 34.4971H206.994V45.989H218.486V34.4971Z" fill="white"/>
<path d="M206.995 310.509H195.503V322.021H206.995V310.509Z" fill="white"/>
<path d="M206.995 298.996H195.503V310.488H206.995V298.996Z" fill="white"/>
<path d="M206.995 287.504H195.503V298.996H206.995V287.504Z" fill="white"/>
<path d="M206.995 276.013H195.503V287.505H206.995V276.013Z" fill="white"/>
<path d="M206.995 264.5H195.503V276.012H206.995V264.5Z" fill="#E2D7D7"/>
<path d="M206.995 253.008H195.503V264.5H206.995V253.008Z" fill="#E2D7D7"/>
<path d="M206.995 241.495H195.503V252.987H206.995V241.495Z" fill="#E2D7D7"/>
<path d="M206.995 230.004H195.503V241.496H206.995V230.004Z" fill="#E2D7D7"/>
<path d="M206.995 57.501H195.503V68.9929H206.995V57.501Z" fill="white"/>
<path d="M206.995 46.0098H195.503V57.5223H206.995V46.0098Z" fill="white"/>
<path d="M195.503 310.509H183.99V322.021H195.503V310.509Z" fill="white"/>
<path d="M195.503 298.996H183.99V310.488H195.503V298.996Z" fill="white"/>
<path d="M195.503 287.504H183.99V298.996H195.503V287.504Z" fill="white"/>
<path d="M195.503 276.013H183.99V287.505H195.503V276.013Z" fill="#E2D7D7"/>
<path d="M195.503 264.5H183.99V276.012H195.503V264.5Z" fill="#E2D7D7"/>
<path d="M195.503 253.008H183.99V264.5H195.503V253.008Z" fill="#E2D7D7"/>
<path d="M195.503 241.495H183.99V252.987H195.503V241.495Z" fill="#E2D7D7"/>
<path d="M183.992 310.509H172.5V322.021H183.992V310.509Z" fill="white"/>
<path d="M183.992 298.996H172.5V310.488H183.992V298.996Z" fill="white"/>
<path d="M183.992 287.504H172.5V298.996H183.992V287.504Z" fill="white"/>
<path d="M183.992 276.013H172.5V287.505H183.992V276.013Z" fill="#E2D7D7"/>
<path d="M183.992 264.5H172.5V276.012H183.992V264.5Z" fill="#E2D7D7"/>
<path d="M172.499 310.509H161.007V322.021H172.499V310.509Z" fill="white"/>
<path d="M172.499 298.996H161.007V310.488H172.499V298.996Z" fill="white"/>
<path d="M172.499 287.504H161.007V298.996H172.499V287.504Z" fill="#E2D7D7"/>
<path d="M172.499 276.013H161.007V287.505H172.499V276.013Z" fill="#E2D7D7"/>
<path d="M160.986 310.509H149.494V322.021H160.986V310.509Z" fill="white"/>
<path d="M160.986 298.996H149.494V310.488H160.986V298.996Z" fill="white"/>
<path d="M160.986 287.504H149.494V298.996H160.986V287.504Z" fill="#E2D7D7"/>
<path d="M149.516 298.996H138.003V310.488H149.516V298.996Z" fill="white"/>
<path d="M149.516 287.504H138.003V298.996H149.516V287.504Z" fill="#E2D7D7"/>
<path d="M149.516 46.0098H138.003V57.5223H149.516V46.0098Z" fill="#E2D7D7"/>
<path d="M149.516 34.4971H138.003V45.989H149.516V34.4971Z" fill="#E2D7D7"/>
<path d="M149.516 23.0049H138.003V34.4968H149.516V23.0049Z" fill="#E2D7D7"/>
<path d="M137.982 46.0098H126.491V57.5223H137.982V46.0098Z" fill="#E2D7D7"/>
<path d="M137.982 34.4971H126.491V45.989H137.982V34.4971Z" fill="white"/>
<path d="M126.492 46.0098H115V57.5223H126.492V46.0098Z" fill="white"/>
<path d="M126.492 34.4971H115V45.989H126.492V34.4971Z" fill="white"/>
<path d="M114.999 57.501H103.507V68.9929H114.999V57.501Z" fill="white"/>
<path d="M114.999 46.0098H103.507V57.5223H114.999V46.0098Z" fill="white"/>
<path d="M218.488 183.994H206.997V195.507H218.488V183.994Z" fill="white"/>
<path d="M218.488 172.502H206.997V183.994H218.488V172.502Z" fill="white"/>
<path d="M218.488 161.011H206.997V172.503H218.488V161.011Z" fill="white"/>
<path d="M218.488 149.498H206.997V160.99H218.488V149.498Z" fill="white"/>
<path d="M218.488 138.006H206.997V149.518H218.488V138.006Z" fill="white"/>
<path d="M218.488 126.494H206.997V137.986H218.488V126.494Z" fill="white"/>
<path d="M218.488 115.002H206.997V126.494H218.488V115.002Z" fill="white"/>
<path d="M218.488 103.51H206.997V115.002H218.488V103.51Z" fill="white"/>
<path d="M218.488 91.9971H206.997V103.51H218.488V91.9971Z" fill="white"/>
<path d="M218.488 80.5059H206.997V91.9978H218.488V80.5059Z" fill="white"/>
<path d="M206.996 218.49H195.504V230.003H206.996V218.49Z" fill="white"/>
<path d="M206.996 206.999H195.504V218.491H206.996V206.999Z" fill="white"/>
<path d="M206.996 195.507H195.504V206.999H206.996V195.507Z" fill="white"/>
<path d="M206.996 183.994H195.504V195.507H206.996V183.994Z" fill="white"/>
<path d="M206.996 172.502H195.504V183.994H206.996V172.502Z" fill="white"/>
<path d="M206.996 161.011H195.504V172.503H206.996V161.011Z" fill="white"/>
<path d="M206.996 149.498H195.504V160.99H206.996V149.498Z" fill="white"/>
<path d="M206.996 138.006H195.504V149.518H206.996V138.006Z" fill="white"/>
<path d="M206.996 126.494H195.504V137.986H206.996V126.494Z" fill="white"/>
<path d="M206.996 115.002H195.504V126.494H206.996V115.002Z" fill="white"/>
<path d="M206.996 103.51H195.504V115.002H206.996V103.51Z" fill="white"/>
<path d="M206.996 91.9971H195.504V103.51H206.996V91.9971Z" fill="white"/>
<path d="M206.996 80.5059H195.504V91.9978H206.996V80.5059Z" fill="white"/>
<path d="M206.996 68.9932H195.504V80.4851H206.996V68.9932Z" fill="white"/>
<path d="M195.505 230.003H183.993V241.495H195.505V230.003Z" fill="white"/>
<path d="M195.505 218.49H183.993V230.003H195.505V218.49Z" fill="white"/>
<path d="M195.505 206.999H183.993V218.491H195.505V206.999Z" fill="white"/>
<path d="M195.505 195.507H183.993V206.999H195.505V195.507Z" fill="white"/>
<path d="M195.505 183.994H183.993V195.507H195.505V183.994Z" fill="white"/>
<path d="M195.505 172.502H183.993V183.994H195.505V172.502Z" fill="white"/>
<path d="M195.505 161.011H183.993V172.503H195.505V161.011Z" fill="white"/>
<path d="M195.505 149.498H183.993V160.99H195.505V149.498Z" fill="white"/>
<path d="M195.505 138.006H183.993V149.518H195.505V138.006Z" fill="white"/>
<path d="M195.505 126.494H183.993V137.986H195.505V126.494Z" fill="white"/>
<path d="M195.505 115.002H183.993V126.494H195.505V115.002Z" fill="white"/>
<path d="M195.505 103.51H183.993V115.002H195.505V103.51Z" fill="white"/>
<path d="M195.505 91.9971H183.993V103.51H195.505V91.9971Z" fill="white"/>
<path d="M195.505 80.5059H183.993V91.9978H195.505V80.5059Z" fill="white"/>
<path d="M195.505 68.9932H183.993V80.4851H195.505V68.9932Z" fill="white"/>
<path d="M195.505 57.501H183.993V68.9929H195.505V57.501Z" fill="white"/>
<path d="M183.992 253.008H172.5V264.5H183.992V253.008Z" fill="white"/>
<path d="M183.992 241.495H172.5V252.987H183.992V241.495Z" fill="white"/>
<path d="M183.992 230.003H172.5V241.495H183.992V230.003Z" fill="white"/>
<path d="M183.992 218.49H172.5V230.003H183.992V218.49Z" fill="white"/>
<path d="M183.992 206.999H172.5V218.491H183.992V206.999Z" fill="white"/>
<path d="M183.992 195.507H172.5V206.999H183.992V195.507Z" fill="white"/>
<path d="M183.992 183.994H172.5V195.507H183.992V183.994Z" fill="white"/>
<path d="M183.992 172.502H172.5V183.994H183.992V172.502Z" fill="white"/>
<path d="M183.992 161.011H172.5V172.503H183.992V161.011Z" fill="white"/>
<path d="M183.992 149.498H172.5V160.99H183.992V149.498Z" fill="white"/>
<path d="M183.992 138.006H172.5V149.518H183.992V138.006Z" fill="white"/>
<path d="M183.992 126.494H172.5V137.986H183.992V126.494Z" fill="white"/>
<path d="M183.992 115.002H172.5V126.494H183.992V115.002Z" fill="white"/>
<path d="M183.992 103.51H172.5V115.002H183.992V103.51Z" fill="white"/>
<path d="M183.992 91.9971H172.5V103.51H183.992V91.9971Z" fill="white"/>
<path d="M183.992 80.5059H172.5V91.9978H183.992V80.5059Z" fill="white"/>
<path d="M183.992 68.9932H172.5V80.4851H183.992V68.9932Z" fill="white"/>
<path d="M183.992 57.501H172.5V68.9929H183.992V57.501Z" fill="white"/>
<path d="M172.499 264.5H161.007V276.013H172.499V264.5Z" fill="white"/>
<path d="M172.499 253.008H161.007V264.5H172.499V253.008Z" fill="white"/>
<path d="M172.499 241.495H161.007V252.987H172.499V241.495Z" fill="white"/>
<path d="M172.499 230.003H161.007V241.495H172.499V230.003Z" fill="white"/>
<path d="M172.499 218.49H161.007V230.003H172.499V218.49Z" fill="white"/>
<path d="M172.499 206.999H161.007V218.491H172.499V206.999Z" fill="white"/>
<path d="M172.499 195.507H161.007V206.999H172.499V195.507Z" fill="white"/>
<path d="M172.499 183.994H161.007V195.507H172.499V183.994Z" fill="white"/>
<path d="M172.499 172.502H161.007V183.994H172.499V172.502Z" fill="white"/>
<path d="M172.499 161.011H161.007V172.503H172.499V161.011Z" fill="white"/>
<path d="M172.499 149.498H161.007V160.99H172.499V149.498Z" fill="white"/>
<path d="M172.499 138.006H161.007V149.518H172.499V138.006Z" fill="white"/>
<path d="M172.499 126.494H161.007V137.986H172.499V126.494Z" fill="white"/>
<path d="M172.499 115.002H161.007V126.494H172.499V115.002Z" fill="white"/>
<path d="M172.499 103.51H161.007V115.002H172.499V103.51Z" fill="white"/>
<path d="M172.499 91.9971H161.007V103.51H172.499V91.9971Z" fill="white"/>
<path d="M172.499 80.5059H161.007V91.9978H172.499V80.5059Z" fill="white"/>
<path d="M172.499 68.9932H161.007V80.4851H172.499V68.9932Z" fill="white"/>
<path d="M172.499 57.501H161.007V68.9929H172.499V57.501Z" fill="white"/>
<path d="M160.988 276.012H149.496V287.504H160.988V276.012Z" fill="white"/>
<path d="M160.988 264.5H149.496V276.013H160.988V264.5Z" fill="white"/>
<path d="M160.988 253.008H149.496V264.5H160.988V253.008Z" fill="white"/>
<path d="M160.988 241.495H149.496V252.987H160.988V241.495Z" fill="white"/>
<path d="M160.988 230.003H149.496V241.495H160.988V230.003Z" fill="white"/>
<path d="M160.988 218.49H149.496V230.003H160.988V218.49Z" fill="white"/>
<path d="M160.988 206.999H149.496V218.491H160.988V206.999Z" fill="white"/>
<path d="M160.988 195.507H149.496V206.999H160.988V195.507Z" fill="white"/>
<path d="M160.988 183.994H149.496V195.507H160.988V183.994Z" fill="white"/>
<path d="M160.988 172.502H149.496V183.994H160.988V172.502Z" fill="white"/>
<path d="M160.988 161.011H149.496V172.503H160.988V161.011Z" fill="white"/>
<path d="M160.988 149.498H149.496V160.99H160.988V149.498Z" fill="white"/>
<path d="M160.988 138.006H149.496V149.518H160.988V138.006Z" fill="white"/>
<path d="M160.988 126.494H149.496V137.986H160.988V126.494Z" fill="white"/>
<path d="M160.988 115.002H149.496V126.494H160.988V115.002Z" fill="white"/>
<path d="M160.988 103.51H149.496V115.002H160.988V103.51Z" fill="white"/>
<path d="M160.988 91.9971H149.496V103.51H160.988V91.9971Z" fill="white"/>
<path d="M160.988 80.5059H149.496V91.9978H160.988V80.5059Z" fill="white"/>
<path d="M160.988 68.9932H149.496V80.4851H160.988V68.9932Z" fill="white"/>
<path d="M160.988 57.501H149.496V68.9929H160.988V57.501Z" fill="white"/>
<path d="M149.516 276.012H138.004V287.504H149.516V276.012Z" fill="white"/>
<path d="M149.516 264.5H138.004V276.013H149.516V264.5Z" fill="white"/>
<path d="M149.516 253.008H138.004V264.5H149.516V253.008Z" fill="white"/>
<path d="M149.516 241.495H138.004V252.987H149.516V241.495Z" fill="white"/>
<path d="M149.516 230.003H138.004V241.495H149.516V230.003Z" fill="white"/>
<path d="M149.516 218.49H138.004V230.003H149.516V218.49Z" fill="white"/>
<path d="M149.516 206.999H138.004V218.491H149.516V206.999Z" fill="white"/>
<path d="M149.516 195.507H138.004V206.999H149.516V195.507Z" fill="white"/>
<path d="M149.516 183.994H138.004V195.507H149.516V183.994Z" fill="white"/>
<path d="M149.516 172.502H138.004V183.994H149.516V172.502Z" fill="white"/>
<path d="M149.516 161.011H138.004V172.503H149.516V161.011Z" fill="white"/>
<path d="M149.516 149.498H138.004V160.99H149.516V149.498Z" fill="white"/>
<path d="M149.516 138.006H138.004V149.518H149.516V138.006Z" fill="white"/>
<path d="M149.516 126.494H138.004V137.986H149.516V126.494Z" fill="white"/>
<path d="M149.516 115.002H138.004V126.494H149.516V115.002Z" fill="white"/>
<path d="M149.516 103.51H138.004V115.002H149.516V103.51Z" fill="white"/>
<path d="M149.516 91.9971H138.004V103.51H149.516V91.9971Z" fill="white"/>
<path d="M149.516 80.5059H138.004V91.9978H149.516V80.5059Z" fill="white"/>
<path d="M149.516 68.9932H138.004V80.4851H149.516V68.9932Z" fill="white"/>
<path d="M149.516 57.501H138.004V68.9929H149.516V57.501Z" fill="white"/>
<path d="M137.984 276.012H126.493V287.504H137.984V276.012Z" fill="white"/>
<path d="M137.984 264.5H126.493V276.013H137.984V264.5Z" fill="white"/>
<path d="M137.984 253.008H126.493V264.5H137.984V253.008Z" fill="white"/>
<path d="M137.984 241.495H126.493V252.987H137.984V241.495Z" fill="white"/>
<path d="M137.984 230.003H126.493V241.495H137.984V230.003Z" fill="white"/>
<path d="M137.984 218.49H126.493V230.003H137.984V218.49Z" fill="white"/>
<path d="M137.984 206.999H126.493V218.491H137.984V206.999Z" fill="white"/>
<path d="M137.984 195.507H126.493V206.999H137.984V195.507Z" fill="white"/>
<path d="M137.984 183.994H126.493V195.507H137.984V183.994Z" fill="white"/>
<path d="M137.984 172.502H126.493V183.994H137.984V172.502Z" fill="white"/>
<path d="M137.984 161.011H126.493V172.503H137.984V161.011Z" fill="white"/>
<path d="M137.984 149.498H126.493V160.99H137.984V149.498Z" fill="white"/>
<path d="M137.984 138.006H126.493V149.518H137.984V138.006Z" fill="white"/>
<path d="M137.984 126.494H126.493V137.986H137.984V126.494Z" fill="white"/>
<path d="M137.984 115.002H126.493V126.494H137.984V115.002Z" fill="white"/>
<path d="M137.984 103.51H126.493V115.002H137.984V103.51Z" fill="white"/>
<path d="M137.984 91.9971H126.493V103.51H137.984V91.9971Z" fill="white"/>
<path d="M137.984 80.5059H126.493V91.9978H137.984V80.5059Z" fill="white"/>
<path d="M137.984 68.9932H126.493V80.4851H137.984V68.9932Z" fill="white"/>
<path d="M137.984 57.501H126.493V68.9929H137.984V57.501Z" fill="white"/>
<path d="M126.492 276.012H115V287.504H126.492V276.012Z" fill="white"/>
<path d="M126.492 264.5H115V276.013H126.492V264.5Z" fill="white"/>
<path d="M126.492 253.008H115V264.5H126.492V253.008Z" fill="white"/>
<path d="M126.492 241.495H115V252.987H126.492V241.495Z" fill="white"/>
<path d="M126.492 230.003H115V241.495H126.492V230.003Z" fill="white"/>
<path d="M126.492 218.49H115V230.003H126.492V218.49Z" fill="white"/>
<path d="M126.492 206.999H115V218.491H126.492V206.999Z" fill="white"/>
<path d="M126.492 195.507H115V206.999H126.492V195.507Z" fill="white"/>
<path d="M126.492 183.994H115V195.507H126.492V183.994Z" fill="white"/>
<path d="M126.492 172.502H115V183.994H126.492V172.502Z" fill="white"/>
<path d="M126.492 161.011H115V172.503H126.492V161.011Z" fill="white"/>
<path d="M126.492 149.498H115V160.99H126.492V149.498Z" fill="white"/>
<path d="M126.492 138.006H115V149.518H126.492V138.006Z" fill="white"/>
<path d="M126.492 126.494H115V137.986H126.492V126.494Z" fill="white"/>
<path d="M126.492 115.002H115V126.494H126.492V115.002Z" fill="white"/>
<path d="M126.492 103.51H115V115.002H126.492V103.51Z" fill="white"/>
<path d="M126.492 91.9971H115V103.51H126.492V91.9971Z" fill="white"/>
<path d="M126.492 80.5059H115V91.9978H126.492V80.5059Z" fill="white"/>
<path d="M126.492 68.9932H115V80.4851H126.492V68.9932Z" fill="white"/>
<path d="M126.492 57.501H115V68.9929H126.492V57.501Z" fill="white"/>
<path d="M114.999 276.012H103.507V287.504H114.999V276.012Z" fill="white"/>
<path d="M114.999 264.5H103.507V276.013H114.999V264.5Z" fill="white"/>
<path d="M114.999 253.008H103.507V264.5H114.999V253.008Z" fill="white"/>
<path d="M114.999 241.495H103.507V252.987H114.999V241.495Z" fill="white"/>
<path d="M114.999 230.003H103.507V241.495H114.999V230.003Z" fill="white"/>
<path d="M114.999 218.49H103.507V230.003H114.999V218.49Z" fill="white"/>
<path d="M114.999 206.999H103.507V218.491H114.999V206.999Z" fill="white"/>
<path d="M114.999 195.507H103.507V206.999H114.999V195.507Z" fill="white"/>
<path d="M114.999 183.994H103.507V195.507H114.999V183.994Z" fill="white"/>
<path d="M114.999 172.502H103.507V183.994H114.999V172.502Z" fill="white"/>
<path d="M114.999 161.011H103.507V172.503H114.999V161.011Z" fill="white"/>
<path d="M114.999 149.498H103.507V160.99H114.999V149.498Z" fill="white"/>
<path d="M114.999 138.006H103.507V149.518H114.999V138.006Z" fill="white"/>
<path d="M114.999 126.494H103.507V137.986H114.999V126.494Z" fill="white"/>
<path d="M114.999 115.002H103.507V126.494H114.999V115.002Z" fill="white"/>
<path d="M114.999 103.51H103.507V115.002H114.999V103.51Z" fill="white"/>
<path d="M114.999 91.9971H103.507V103.51H114.999V91.9971Z" fill="white"/>
<path d="M114.999 80.5059H103.507V91.9978H114.999V80.5059Z" fill="white"/>
<path d="M114.999 68.9932H103.507V80.4851H114.999V68.9932Z" fill="white"/>
<path d="M103.509 276.012H91.9966V287.504H103.509V276.012Z" fill="white"/>
<path d="M103.509 264.5H91.9966V276.013H103.509V264.5Z" fill="white"/>
<path d="M103.509 253.008H91.9966V264.5H103.509V253.008Z" fill="white"/>
<path d="M103.509 241.495H91.9966V252.987H103.509V241.495Z" fill="white"/>
<path d="M103.509 230.003H91.9966V241.495H103.509V230.003Z" fill="white"/>
<path d="M103.509 218.49H91.9966V230.003H103.509V218.49Z" fill="white"/>
<path d="M103.509 206.999H91.9966V218.491H103.509V206.999Z" fill="white"/>
<path d="M103.509 195.507H91.9966V206.999H103.509V195.507Z" fill="white"/>
<path d="M103.509 183.994H91.9966V195.507H103.509V183.994Z" fill="white"/>
<path d="M103.509 172.502H91.9966V183.994H103.509V172.502Z" fill="white"/>
<path d="M103.509 161.011H91.9966V172.503H103.509V161.011Z" fill="white"/>
<path d="M103.509 149.498H91.9966V160.99H103.509V149.498Z" fill="white"/>
<path d="M103.509 138.006H91.9966V149.518H103.509V138.006Z" fill="white"/>
<path d="M103.509 126.494H91.9966V137.986H103.509V126.494Z" fill="white"/>
<path d="M103.509 115.002H91.9966V126.494H103.509V115.002Z" fill="white"/>
<path d="M103.509 103.51H91.9966V115.002H103.509V103.51Z" fill="white"/>
<path d="M103.509 91.9971H91.9966V103.51H103.509V91.9971Z" fill="white"/>
<path d="M103.509 80.5059H91.9966V91.9978H103.509V80.5059Z" fill="white"/>
<path d="M103.509 68.9932H91.9966V80.4851H103.509V68.9932Z" fill="white"/>
<path d="M91.9952 276.012H80.5034V287.504H91.9952V276.012Z" fill="white"/>
<path d="M91.9952 264.5H80.5034V276.013H91.9952V264.5Z" fill="white"/>
<path d="M91.9952 253.008H80.5034V264.5H91.9952V253.008Z" fill="white"/>
<path d="M91.9952 241.495H80.5034V252.987H91.9952V241.495Z" fill="white"/>
<path d="M91.9952 230.003H80.5034V241.495H91.9952V230.003Z" fill="white"/>
<path d="M91.9952 218.49H80.5034V230.003H91.9952V218.49Z" fill="white"/>
<path d="M91.9952 206.999H80.5034V218.491H91.9952V206.999Z" fill="white"/>
<path d="M91.9952 195.507H80.5034V206.999H91.9952V195.507Z" fill="white"/>
<path d="M91.9952 183.994H80.5034V195.507H91.9952V183.994Z" fill="white"/>
<path d="M91.9952 172.502H80.5034V183.994H91.9952V172.502Z" fill="white"/>
<path d="M91.9952 161.011H80.5034V172.503H91.9952V161.011Z" fill="white"/>
<path d="M91.9952 149.498H80.5034V160.99H91.9952V149.498Z" fill="white"/>
<path d="M91.9952 138.006H80.5034V149.518H91.9952V138.006Z" fill="white"/>
<path d="M91.9952 126.494H80.5034V137.986H91.9952V126.494Z" fill="white"/>
<path d="M91.9952 115.002H80.5034V126.494H91.9952V115.002Z" fill="white"/>
<path d="M91.9952 103.51H80.5034V115.002H91.9952V103.51Z" fill="white"/>
<path d="M91.9952 91.9971H80.5034V103.51H91.9952V91.9971Z" fill="white"/>
<path d="M91.9952 80.5059H80.5034V91.9978H91.9952V80.5059Z" fill="white"/>
<path d="M80.4844 276.012H68.9927V287.504H80.4844V276.012Z" fill="white"/>
<path d="M80.4844 264.5H68.9927V276.013H80.4844V264.5Z" fill="white"/>
<path d="M80.4844 253.008H68.9927V264.5H80.4844V253.008Z" fill="white"/>
<path d="M80.4844 241.495H68.9927V252.987H80.4844V241.495Z" fill="white"/>
<path d="M80.4844 230.003H68.9927V241.495H80.4844V230.003Z" fill="white"/>
<path d="M80.4844 218.49H68.9927V230.003H80.4844V218.49Z" fill="white"/>
<path d="M80.4844 206.999H68.9927V218.491H80.4844V206.999Z" fill="white"/>
<path d="M80.4844 195.507H68.9927V206.999H80.4844V195.507Z" fill="white"/>
<path d="M80.4844 183.994H68.9927V195.507H80.4844V183.994Z" fill="white"/>
<path d="M80.4844 172.502H68.9927V183.994H80.4844V172.502Z" fill="white"/>
<path d="M80.4844 161.011H68.9927V172.503H80.4844V161.011Z" fill="white"/>
<path d="M80.4844 149.498H68.9927V160.99H80.4844V149.498Z" fill="white"/>
<path d="M80.4844 138.006H68.9927V149.518H80.4844V138.006Z" fill="white"/>
<path d="M80.4844 126.494H68.9927V137.986H80.4844V126.494Z" fill="white"/>
<path d="M80.4844 115.002H68.9927V126.494H80.4844V115.002Z" fill="white"/>
<path d="M80.4844 103.51H68.9927V115.002H80.4844V103.51Z" fill="white"/>
<path d="M68.9918 276.012H57.5V287.504H68.9918V276.012Z" fill="white"/>
<path d="M68.9918 264.5H57.5V276.013H68.9918V264.5Z" fill="white"/>
<path d="M68.9918 253.008H57.5V264.5H68.9918V253.008Z" fill="white"/>
<path d="M68.9918 241.495H57.5V252.987H68.9918V241.495Z" fill="white"/>
<path d="M68.9918 230.003H57.5V241.495H68.9918V230.003Z" fill="white"/>
<path d="M68.9918 218.49H57.5V230.003H68.9918V218.49Z" fill="white"/>
<path d="M68.9918 206.999H57.5V218.491H68.9918V206.999Z" fill="white"/>
<path d="M68.9918 195.507H57.5V206.999H68.9918V195.507Z" fill="white"/>
<path d="M68.9918 183.994H57.5V195.507H68.9918V183.994Z" fill="white"/>
<path d="M68.9918 172.502H57.5V183.994H68.9918V172.502Z" fill="white"/>
<path d="M68.9918 161.011H57.5V172.503H68.9918V161.011Z" fill="white"/>
<path d="M68.9918 149.498H57.5V160.99H68.9918V149.498Z" fill="white"/>
<path d="M68.9918 138.006H57.5V149.518H68.9918V138.006Z" fill="white"/>
<path d="M68.9918 126.494H57.5V137.986H68.9918V126.494Z" fill="white"/>
<path d="M57.5192 276.012H46.0068V287.504H57.5192V276.012Z" fill="white"/>
<path d="M57.5192 264.5H46.0068V276.013H57.5192V264.5Z" fill="white"/>
<path d="M57.5192 253.008H46.0068V264.5H57.5192V253.008Z" fill="white"/>
<path d="M57.5192 241.495H46.0068V252.987H57.5192V241.495Z" fill="white"/>
<path d="M57.5192 230.003H46.0068V241.495H57.5192V230.003Z" fill="white"/>
<path d="M57.5192 218.49H46.0068V230.003H57.5192V218.49Z" fill="white"/>
<path d="M57.5192 206.999H46.0068V218.491H57.5192V206.999Z" fill="white"/>
<path d="M57.5192 195.507H46.0068V206.999H57.5192V195.507Z" fill="white"/>
<path d="M57.5192 183.994H46.0068V195.507H57.5192V183.994Z" fill="white"/>
<path d="M57.5192 172.502H46.0068V183.994H57.5192V172.502Z" fill="white"/>
<path d="M57.5192 161.011H46.0068V172.503H57.5192V161.011Z" fill="white"/>
<path d="M57.5192 149.498H46.0068V160.99H57.5192V149.498Z" fill="white"/>
<path d="M45.9883 276.012H34.4966V287.504H45.9883V276.012Z" fill="white"/>
<path d="M45.9883 264.5H34.4966V276.013H45.9883V264.5Z" fill="white"/>
<path d="M45.9883 253.008H34.4966V264.5H45.9883V253.008Z" fill="white"/>
<path d="M45.9883 241.495H34.4966V252.987H45.9883V241.495Z" fill="white"/>
<path d="M45.9883 230.003H34.4966V241.495H45.9883V230.003Z" fill="white"/>
<path d="M45.9883 218.49H34.4966V230.003H45.9883V218.49Z" fill="white"/>
<path d="M45.9883 206.999H34.4966V218.491H45.9883V206.999Z" fill="white"/>
<path d="M45.9883 195.507H34.4966V206.999H45.9883V195.507Z" fill="white"/>
<path d="M45.9883 183.994H34.4966V195.507H45.9883V183.994Z" fill="white"/>
<path d="M45.9883 172.502H34.4966V183.994H45.9883V172.502Z" fill="white"/>
<path d="M34.4952 276.012H23.0034V287.504H34.4952V276.012Z" fill="white"/>
<path d="M34.4952 264.5H23.0034V276.013H34.4952V264.5Z" fill="white"/>
<path d="M34.4952 253.008H23.0034V264.5H34.4952V253.008Z" fill="white"/>
<path d="M34.4952 241.495H23.0034V252.987H34.4952V241.495Z" fill="white"/>
<path d="M34.4952 230.003H23.0034V241.495H34.4952V230.003Z" fill="white"/>
<path d="M34.4952 218.49H23.0034V230.003H34.4952V218.49Z" fill="white"/>
<path d="M34.4952 206.999H23.0034V218.491H34.4952V206.999Z" fill="white"/>
<path d="M34.4952 195.507H23.0034V206.999H34.4952V195.507Z" fill="white"/>
<path d="M34.4952 183.994H23.0034V195.507H34.4952V183.994Z" fill="white"/>
<path d="M34.4952 172.502H23.0034V183.994H34.4952V172.502Z" fill="white"/>
<path d="M23.005 264.5H11.4927V276.013H23.005V264.5Z" fill="white"/>
<path d="M23.005 253.008H11.4927V264.5H23.005V253.008Z" fill="white"/>
<path d="M23.005 241.495H11.4927V252.987H23.005V241.495Z" fill="white"/>
<path d="M23.005 230.003H11.4927V241.495H23.005V230.003Z" fill="white"/>
<path d="M23.005 218.49H11.4927V230.003H23.005V218.49Z" fill="white"/>
<path d="M23.005 206.999H11.4927V218.491H23.005V206.999Z" fill="white"/>
<path d="M23.005 195.507H11.4927V206.999H23.005V195.507Z" fill="white"/>
<path d="M23.005 183.994H11.4927V195.507H23.005V183.994Z" fill="white"/>
<path d="M11.4918 253.008H0V264.5H11.4918V253.008Z" fill="white"/>
<path d="M11.4918 241.495H0V252.987H11.4918V241.495Z" fill="white"/>
<path d="M11.4918 230.003H0V241.495H11.4918V230.003Z" fill="white"/>
<path d="M11.4918 218.49H0V230.003H11.4918V218.49Z" fill="white"/>
<path d="M11.4918 206.999H0V218.491H11.4918V206.999Z" fill="white"/>
<path d="M11.4918 195.507H0V206.999H11.4918V195.507Z" fill="white"/>
<path d="M149.516 310.509H138.004V322.021H149.516V310.509Z" fill="white"/>
<path d="M149.516 298.996H138.004V310.488H149.516V298.996Z" fill="white"/>
<path d="M137.985 310.509H126.493V322.021H137.985V310.509Z" fill="white"/>
<path d="M137.985 298.996H126.493V310.488H137.985V298.996Z" fill="white"/>
<path d="M91.9952 206.999H80.5034V218.491H91.9952V206.999Z" fill="#3F2A5E"/>
<path d="M91.9952 195.507H80.5034V206.999H91.9952V195.507Z" fill="#3F2A5E"/>
<path d="M45.9883 206.999H34.4966V218.491H45.9883V206.999Z" fill="#3F2A5E"/>
<path d="M45.9883 195.507H34.4966V206.999H45.9883V195.507Z" fill="#3F2A5E"/>
<path d="M252.985 126.494H241.493V137.986H252.985V126.494Z" fill="#353535"/>
<path d="M241.513 126.494H230V137.986H241.513V126.494Z" fill="#353535"/>
<path d="M241.513 115.002H230V126.494H241.513V115.002Z" fill="#353535"/>
<path d="M252.985 115.002H241.493V126.494H252.985V115.002Z" fill="#353535"/>
<path d="M241.513 103.51H230V115.002H241.513V103.51Z" fill="#353535"/>
<path d="M218.488 103.51H206.997V115.002H218.488V103.51Z" fill="#353535"/>
<path d="M218.488 115.002H206.997V126.494H218.488V115.002Z" fill="#353535"/>
<path d="M229.981 103.51H218.489V115.002H229.981V103.51Z" fill="#353535"/>
<path d="M229.981 115.002H218.489V126.494H229.981V115.002Z" fill="#353535"/>
<path d="M195.505 149.498H183.993V160.99H195.505V149.498Z" fill="#353535"/>
<path d="M183.992 149.498H172.5V160.99H183.992V149.498Z" fill="#353535"/>
<path d="M172.502 149.498H161.01V160.99H172.502V149.498Z" fill="#353535"/>
<path d="M160.988 149.498H149.497V160.99H160.988V149.498Z" fill="#353535"/>
<path d="M206.996 138.006H195.504V149.518H206.996V138.006Z" fill="#353535"/>
<path d="M206.996 115.002H195.504V126.494H206.996V115.002Z" fill="#353535"/>
<path d="M206.996 103.51H195.504V115.002H206.996V103.51Z" fill="#353535"/>
<path d="M206.996 126.494H195.504V137.986H206.996V126.494Z" fill="#353535"/>
<path d="M195.505 138.006H183.993V149.518H195.505V138.006Z" fill="#353535"/>
<path d="M195.505 126.494H183.993V137.986H195.505V126.494Z" fill="#353535"/>
<path d="M195.505 115.002H183.993V126.494H195.505V115.002Z" fill="#353535"/>
<path d="M195.505 103.51H183.993V115.002H195.505V103.51Z" fill="#353535"/>
<path d="M183.992 138.006H172.5V149.518H183.992V138.006Z" fill="#353535"/>
<path d="M183.992 126.494H172.5V137.986H183.992V126.494Z" fill="#353535"/>
<path d="M183.992 103.51H172.5V115.002H183.992V103.51Z" fill="#353535"/>
<path d="M183.992 115.002H172.5V126.494H183.992V115.002Z" fill="#353535"/>
<path d="M172.502 103.51H161.01V115.002H172.502V103.51Z" fill="#353535"/>
<path d="M172.502 126.494H161.01V137.986H172.502V126.494Z" fill="#353535"/>
<path d="M172.502 138.006H161.01V149.518H172.502V138.006Z" fill="#353535"/>
<path d="M172.502 115.002H161.01V126.494H172.502V115.002Z" fill="#353535"/>
<path d="M160.988 138.006H149.497V149.518H160.988V138.006Z" fill="#353535"/>
<path d="M160.988 103.51H149.497V115.002H160.988V103.51Z" fill="#353535"/>
<path d="M160.988 126.494H149.497V137.986H160.988V126.494Z" fill="#353535"/>
<path d="M160.988 115.002H149.497V126.494H160.988V115.002Z" fill="#353535"/>
<path d="M149.516 138.006H138.004V149.518H149.516V138.006Z" fill="#353535"/>
<path d="M149.516 103.51H138.004V115.002H149.516V103.51Z" fill="#353535"/>
<path d="M149.516 126.494H138.004V137.986H149.516V126.494Z" fill="#353535"/>
<path d="M149.516 115.002H138.004V126.494H149.516V115.002Z" fill="#353535"/>
<path d="M149.516 149.498H138.004V160.99H149.516V149.498Z" fill="#353535"/>
<path d="M137.985 138.006H126.493V149.518H137.985V138.006Z" fill="#353535"/>
<path d="M137.985 126.494H126.493V137.986H137.985V126.494Z" fill="#353535"/>
<path d="M126.492 115.002H115V126.494H126.492V115.002Z" fill="#353535"/>
<path d="M126.492 103.51H115V115.002H126.492V103.51Z" fill="#353535"/>
<path d="M115.002 103.51H103.51V115.002H115.002V103.51Z" fill="#353535"/>
<path d="M137.985 115.002H126.493V126.494H137.985V115.002Z" fill="#353535"/>
<path d="M137.985 103.51H126.493V115.002H137.985V103.51Z" fill="#353535"/>
<path d="M115.002 115.002H103.51V126.494H115.002V115.002Z" fill="#353535"/>
<path d="M115.002 138.006H103.51V149.518H115.002V138.006Z" fill="#353535"/>
<path d="M115.002 126.494H103.51V137.986H115.002V126.494Z" fill="#353535"/>
<path d="M103.509 149.498H91.9966V160.99H103.509V149.498Z" fill="#353535"/>
<path d="M91.9952 149.498H80.5034V160.99H91.9952V149.498Z" fill="#353535"/>
<path d="M80.4849 149.498H68.9932V160.99H80.4849V149.498Z" fill="#353535"/>
<path d="M68.9918 149.498H57.5V160.99H68.9918V149.498Z" fill="#353535"/>
<path d="M57.5221 149.498H46.0098V160.99H57.5221V149.498Z" fill="#353535"/>
<path d="M103.509 126.494H91.9966V137.986H103.509V126.494Z" fill="#353535"/>
<path d="M103.509 115.002H91.9966V126.494H103.509V115.002Z" fill="#353535"/>
<path d="M103.509 103.51H91.9966V115.002H103.509V103.51Z" fill="#353535"/>
<path d="M91.9952 103.51H80.5034V115.002H91.9952V103.51Z" fill="#353535"/>
<path d="M91.9952 115.002H80.5034V126.494H91.9952V115.002Z" fill="#353535"/>
<path d="M91.9952 126.494H80.5034V137.986H91.9952V126.494Z" fill="#353535"/>
<path d="M80.4849 115.002H68.9932V126.494H80.4849V115.002Z" fill="#353535"/>
<path d="M80.4849 103.51H68.9932V115.002H80.4849V103.51Z" fill="#353535"/>
<path d="M80.4849 126.494H68.9932V137.986H80.4849V126.494Z" fill="#353535"/>
<path d="M68.9918 126.494H57.5V137.986H68.9918V126.494Z" fill="#353535"/>
<path d="M68.9918 115.002H57.5V126.494H68.9918V115.002Z" fill="#353535"/>
<path d="M68.9918 103.51H57.5V115.002H68.9918V103.51Z" fill="#353535"/>
<path d="M57.5221 115.002H46.0098V126.494H57.5221V115.002Z" fill="#353535"/>
<path d="M57.5221 126.494H46.0098V137.986H57.5221V126.494Z" fill="#353535"/>
<path d="M103.509 138.006H91.9966V149.518H103.509V138.006Z" fill="#353535"/>
<path d="M91.9952 138.006H80.5034V149.518H91.9952V138.006Z" fill="#353535"/>
<path d="M80.4849 138.006H68.9932V149.518H80.4849V138.006Z" fill="#353535"/>
<path d="M68.9918 138.006H57.5V149.518H68.9918V138.006Z" fill="#353535"/>
<path d="M57.5221 138.006H46.0098V149.518H57.5221V138.006Z" fill="#353535"/>
<path d="M45.9883 138.006H34.4966V149.518H45.9883V138.006Z" fill="#353535"/>
<path d="M45.9883 126.494H34.4966V137.986H45.9883V126.494Z" fill="#353535"/>
<path d="M45.9883 115.002H34.4966V126.494H45.9883V115.002Z" fill="#353535"/>
<path d="M45.9883 103.51H34.4966V115.002H45.9883V103.51Z" fill="#353535"/>
<path d="M57.5221 103.51H46.0098V115.002H57.5221V103.51Z" fill="#353535"/>
<path d="M206.998 91.9971H195.506V103.51H206.998V91.9971Z" fill="#E4DFE8"/>
<path d="M206.998 80.5059H195.506V91.9978H206.998V80.5059Z" fill="#E4DFE8"/>
<path d="M23.005 264.5H11.4927V276.013H23.005V264.5Z" fill="#E4DFE8"/>
<path d="M103.508 276.012H91.9961V287.504H103.508V276.012Z" fill="#E4DFE8"/>
<path d="M91.9981 276.012H80.5063V287.504H91.9981V276.012Z" fill="#E4DFE8"/>
<path d="M115.002 276.012H103.51V287.504H115.002V276.012Z" fill="#E4DFE8"/>
<path d="M68.9913 276.012H57.4995V287.504H68.9913V276.012Z" fill="#E4DFE8"/>
<path d="M57.5221 276.012H46.0098V287.504H57.5221V276.012Z" fill="#E4DFE8"/>
<path d="M45.9879 276.012H34.4961V287.504H45.9879V276.012Z" fill="#E4DFE8"/>
<path d="M34.4976 276.012H23.0059V287.504H34.4976V276.012Z" fill="#E4DFE8"/>
<path d="M80.4844 276.012H68.9927V287.504H80.4844V276.012Z" fill="#E4DFE8"/>
<path d="M183.992 241.495H172.5V252.987H183.992V241.495Z" fill="#E4DFE8"/>
<path d="M183.992 253.008H172.5V264.5H183.992V253.008Z" fill="#E4DFE8"/>
<path d="M172.502 264.5H161.01V276.013H172.502V264.5Z" fill="#E4DFE8"/>
<path d="M149.519 276.012H138.006V287.504H149.519V276.012Z" fill="#E4DFE8"/>
<path d="M160.988 276.012H149.497V287.504H160.988V276.012Z" fill="#E4DFE8"/>
<path d="M137.984 276.012H126.492V287.504H137.984V276.012Z" fill="#E4DFE8"/>
<path d="M126.492 276.012H115V287.504H126.492V276.012Z" fill="#E4DFE8"/>
<path d="M195.505 230.003H183.993V241.495H195.505V230.003Z" fill="#E4DFE8"/>
<path d="M206.998 206.999H195.506V218.491H206.998V206.999Z" fill="#E4DFE8"/>
<path d="M206.998 195.507H195.506V206.999H206.998V195.507Z" fill="#E4DFE8"/>
<path d="M206.998 218.49H195.506V230.003H206.998V218.49Z" fill="#E4DFE8"/>
<path d="M218.488 183.994H206.997V195.507H218.488V183.994Z" fill="#E4DFE8"/>
<path d="M229.981 161.011H218.489V172.503H229.981V161.011Z" fill="#E4DFE8"/>
<path d="M229.981 149.498H218.489V160.99H229.981V149.498Z" fill="#E4DFE8"/>
<path d="M229.981 172.502H218.489V183.994H229.981V172.502Z" fill="#E4DFE8"/>
<path d="M229.981 126.494H218.489V137.986H229.981V126.494Z" fill="#E4DFE8"/>
<path d="M229.981 138.006H218.489V149.518H229.981V138.006Z" fill="#E4DFE8"/>
<path d="M218.488 91.9971H206.997V103.51H218.488V91.9971Z" fill="#E4DFE8"/>
<path d="M218.488 80.5059H206.997V91.9978H218.488V80.5059Z" fill="#E4DFE8"/>
<path d="M137.984 57.501H126.492V68.9929H137.984V57.501Z" fill="#E4DFE8"/>
<path d="M149.519 57.501H138.006V68.9929H149.519V57.501Z" fill="#E4DFE8"/>
<path d="M195.505 57.501H183.993V68.9929H195.505V57.501Z" fill="#E4DFE8"/>
<path d="M183.992 57.501H172.5V68.9929H183.992V57.501Z" fill="#E4DFE8"/>
<path d="M172.502 57.501H161.01V68.9929H172.502V57.501Z" fill="#E4DFE8"/>
<path d="M160.988 57.501H149.497V68.9929H160.988V57.501Z" fill="#E4DFE8"/>
<path d="M252.984 183.994H241.493V195.507H252.984V183.994Z" fill="#E4DFE8"/>
<path d="M264.498 195.507H253.006V206.999H264.498V195.507Z" fill="#E4DFE8"/>
<path d="M275.988 206.999H264.496V218.491H275.988V206.999Z" fill="#E4DFE8"/>
<path d="M275.988 218.49H264.496V230.003H275.988V218.49Z" fill="#E4DFE8"/>
<path d="M287.502 230.003H275.989V241.495H287.502V230.003Z" fill="#E4DFE8"/>
<path d="M287.502 241.495H275.989V252.987H287.502V241.495Z" fill="#E4DFE8"/>
<path d="M287.502 253.008H275.989V264.5H287.502V253.008Z" fill="#E4DFE8"/>
<path d="M298.992 264.5H287.5V276.013H298.992V264.5Z" fill="#E4DFE8"/>
<path d="M298.992 276.012H287.5V287.504H298.992V276.012Z" fill="#E4DFE8"/>
<path d="M298.992 287.504H287.5V298.996H298.992V287.504Z" fill="#E4DFE8"/>
<path d="M287.502 298.996H275.989V310.488H287.502V298.996Z" fill="#E4DFE8"/>
<path d="M298.992 298.996H287.5V310.488H298.992V298.996Z" fill="#E4DFE8"/>
<path d="M310.484 264.5H298.993V276.013H310.484V264.5Z" fill="#E4DFE8"/>
<path d="M310.484 287.504H298.993V298.996H310.484V287.504Z" fill="#E4DFE8"/>
<path d="M310.484 276.012H298.993V287.504H310.484V276.012Z" fill="#E4DFE8"/>
<path d="M298.992 253.008H287.5V264.5H298.992V253.008Z" fill="#E4DFE8"/>
<path d="M298.992 241.495H287.5V252.987H298.992V241.495Z" fill="#E4DFE8"/>
<path d="M298.992 230.003H287.5V241.495H298.992V230.003Z" fill="#E4DFE8"/>
<path d="M287.502 206.999H275.989V218.491H287.502V206.999Z" fill="#E4DFE8"/>
<path d="M287.502 218.49H275.989V230.003H287.502V218.49Z" fill="#E4DFE8"/>
<path d="M275.988 183.994H264.496V195.507H275.988V183.994Z" fill="#E4DFE8"/>
<path d="M275.988 195.507H264.496V206.999H275.988V195.507Z" fill="#E4DFE8"/>
<path d="M264.498 183.994H253.006V195.507H264.498V183.994Z" fill="#E4DFE8"/>
<path d="M252.984 172.502H241.493V183.994H252.984V172.502Z" fill="#E4DFE8"/>
<path d="M252.984 161.011H241.493V172.503H252.984V161.011Z" fill="#E4DFE8"/>
<path d="M103.508 46.0088H91.9961V57.5213H103.508V46.0088Z" fill="#531484"/>
<path d="M91.9952 68.9922H80.5034V80.4841H91.9952V68.9922Z" fill="#531484"/>
<path d="M103.508 57.501H91.9961V68.9929H103.508V57.501Z" fill="#531484"/>
<path d="M321.995 161.01H310.503V172.502H321.995V161.01Z" fill="#531484"/>
<path d="M310.481 161.01H298.99V172.502H310.481V161.01Z" fill="#531484"/>
<path d="M298.992 149.497H287.5V160.989H298.992V149.497Z" fill="#531484"/>
<path d="M344.978 172.502H333.486V183.994H344.978V172.502Z" fill="#531484"/>
<path d="M333.508 172.502H321.996V183.994H333.508V172.502Z" fill="#531484"/>
<path d="M344.978 161.01H333.486V172.502H344.978V161.01Z" fill="#531484"/>
<path d="M298.992 161.01H287.5V172.502H298.992V161.01Z" fill="#531484"/>
<path d="M310.481 206.998H298.99V218.49H310.481V206.998Z" fill="#531484"/>
<path d="M310.481 195.507H298.99V206.999H310.481V195.507Z" fill="#531484"/>
<path d="M333.508 183.994H321.996V195.507H333.508V183.994Z" fill="#531484"/>
<path d="M321.995 183.994H310.503V195.507H321.995V183.994Z" fill="#531484"/>
<path d="M310.481 183.994H298.99V195.507H310.481V183.994Z" fill="#531484"/>
<path d="M298.992 172.502H287.5V183.994H298.992V172.502Z" fill="#531484"/>
<path d="M298.992 183.994H287.5V195.507H298.992V183.994Z" fill="#531484"/>
<path d="M310.481 230.003H298.99V241.495H310.481V230.003Z" fill="#531484"/>
<path d="M298.992 195.507H287.5V206.999H298.992V195.507Z" fill="#531484"/>
<path d="M298.992 218.49H287.5V230.003H298.992V218.49Z" fill="#531484"/>
<path d="M287.499 183.994H275.986V195.507H287.499V183.994Z" fill="#531484"/>
<path d="M298.992 206.998H287.5V218.49H298.992V206.998Z" fill="#531484"/>
<path d="M287.499 206.998H275.986V218.49H287.499V206.998Z" fill="#531484"/>
<path d="M287.499 195.507H275.986V206.999H287.499V195.507Z" fill="#531484"/>
<path d="M275.988 183.994H264.496V195.507H275.988V183.994Z" fill="#531484"/>
<path d="M241.512 161.01H230V172.502H241.512V161.01Z" fill="#531484"/>
<path d="M241.512 172.502H230V183.994H241.512V172.502Z" fill="#531484"/>
<path d="M275.988 195.507H264.496V206.999H275.988V195.507Z" fill="#531484"/>
<path d="M275.988 206.998H264.496V218.49H275.988V206.998Z" fill="#531484"/>
<path d="M252.982 172.502H241.49V183.994H252.982V172.502Z" fill="#531484"/>
<path d="M252.982 195.507H241.49V206.999H252.982V195.507Z" fill="#531484"/>
<path d="M252.982 183.994H241.49V195.507H252.982V183.994Z" fill="#531484"/>
<path d="M252.982 161.01H241.49V172.502H252.982V161.01Z" fill="#531484"/>
<path d="M241.512 195.507H230V206.999H241.512V195.507Z" fill="#531484"/>
<path d="M229.978 218.49H218.486V230.003H229.978V218.49Z" fill="#531484"/>
<path d="M264.495 195.507H253.003V206.999H264.495V195.507Z" fill="#531484"/>
<path d="M264.495 206.998H253.003V218.49H264.495V206.998Z" fill="#531484"/>
<path d="M264.495 183.994H253.003V195.507H264.495V183.994Z" fill="#531484"/>
<path d="M264.495 172.502H253.003V183.994H264.495V172.502Z" fill="#531484"/>
<path d="M252.982 218.49H241.49V230.003H252.982V218.49Z" fill="#531484"/>
<path d="M252.982 206.998H241.49V218.49H252.982V206.998Z" fill="#531484"/>
<path d="M241.512 218.49H230V230.003H241.512V218.49Z" fill="#531484"/>
<path d="M275.988 172.502H264.496V183.994H275.988V172.502Z" fill="#531484"/>
<path d="M333.508 103.51H321.996V115.002H333.508V103.51Z" fill="#531484"/>
<path d="M321.995 115.001H310.503V126.493H321.995V115.001Z" fill="#531484"/>
<path d="M310.481 126.493H298.99V137.985H310.481V126.493Z" fill="#531484"/>
<path d="M310.481 115.001H298.99V126.493H310.481V115.001Z" fill="#531484"/>
<path d="M310.481 103.51H298.99V115.002H310.481V103.51Z" fill="#531484"/>
<path d="M298.992 138.006H287.5V149.518H298.992V138.006Z" fill="#531484"/>
<path d="M298.992 126.493H287.5V137.985H298.992V126.493Z" fill="#531484"/>
<path d="M298.992 115.001H287.5V126.493H298.992V115.001Z" fill="#531484"/>
<path d="M298.992 103.51H287.5V115.002H298.992V103.51Z" fill="#531484"/>
<path d="M298.992 80.5049H287.5V91.9968H298.992V80.5049Z" fill="#531484"/>
<path d="M298.992 68.9922H287.5V80.4841H298.992V68.9922Z" fill="#531484"/>
<path d="M287.499 172.502H275.986V183.994H287.499V172.502Z" fill="#531484"/>
<path d="M287.499 161.01H275.986V172.502H287.499V161.01Z" fill="#531484"/>
<path d="M287.499 149.497H275.986V160.989H287.499V149.497Z" fill="#531484"/>
<path d="M287.499 138.006H275.986V149.518H287.499V138.006Z" fill="#531484"/>
<path d="M287.499 126.493H275.986V137.985H287.499V126.493Z" fill="#531484"/>
<path d="M287.499 115.001H275.986V126.493H287.499V115.001Z" fill="#531484"/>
<path d="M287.499 103.51H275.986V115.002H287.499V103.51Z" fill="#531484"/>
<path d="M287.499 80.5049H275.986V91.9968H287.499V80.5049Z" fill="#531484"/>
<path d="M275.988 161.01H264.496V172.502H275.988V161.01Z" fill="#531484"/>
<path d="M275.988 149.497H264.496V160.989H275.988V149.497Z" fill="#531484"/>
<path d="M275.988 138.006H264.496V149.518H275.988V138.006Z" fill="#531484"/>
<path d="M275.988 126.493H264.496V137.985H275.988V126.493Z" fill="#531484"/>
<path d="M275.988 115.001H264.496V126.493H275.988V115.001Z" fill="#531484"/>
<path d="M275.988 103.51H264.496V115.002H275.988V103.51Z" fill="#531484"/>
<path d="M275.988 80.5049H264.496V91.9968H275.988V80.5049Z" fill="#531484"/>
<path d="M264.495 161.01H253.003V172.502H264.495V161.01Z" fill="#531484"/>
<path d="M264.495 149.497H253.003V160.989H264.495V149.497Z" fill="#531484"/>
<path d="M264.495 138.006H253.003V149.518H264.495V138.006Z" fill="#531484"/>
<path d="M264.495 126.493H253.003V137.985H264.495V126.493Z" fill="#531484"/>
<path d="M264.495 115.001H253.003V126.493H264.495V115.001Z" fill="#531484"/>
<path d="M264.495 103.51H253.003V115.002H264.495V103.51Z" fill="#531484"/>
<path d="M264.495 91.9971H253.003V103.51H264.495V91.9971Z" fill="#531484"/>
<path d="M252.982 149.497H241.49V160.989H252.982V149.497Z" fill="#531484"/>
<path d="M252.982 138.006H241.49V149.518H252.982V138.006Z" fill="#531484"/>
<path d="M252.982 103.51H241.49V115.002H252.982V103.51Z" fill="#531484"/>
<path d="M252.982 91.9971H241.49V103.51H252.982V91.9971Z" fill="#531484"/>
<path d="M252.982 80.5049H241.49V91.9968H252.982V80.5049Z" fill="#531484"/>
<path d="M252.982 68.9922H241.49V80.4841H252.982V68.9922Z" fill="#531484"/>
<path d="M241.512 138.006H230V149.518H241.512V138.006Z" fill="#531484"/>
<path d="M241.512 91.9971H230V103.51H241.512V91.9971Z" fill="#531484"/>
<path d="M241.512 80.5049H230V91.9968H241.512V80.5049Z" fill="#531484"/>
<path d="M241.512 68.9922H230V80.4841H241.512V68.9922Z" fill="#531484"/>
<path d="M241.512 57.501H230V68.9929H241.512V57.501Z" fill="#531484"/>
<path d="M229.978 91.9971H218.486V103.51H229.978V91.9971Z" fill="#531484"/>
<path d="M229.978 80.5049H218.486V91.9968H229.978V80.5049Z" fill="#531484"/>
<path d="M229.978 68.9922H218.486V80.4841H229.978V68.9922Z" fill="#531484"/>
<path d="M206.995 34.4961H195.503V45.988H206.995V34.4961Z" fill="#531484"/>
<path d="M195.503 46.0088H183.99V57.5213H195.503V46.0088Z" fill="#531484"/>
<path d="M195.503 34.4961H183.99V45.988H195.503V34.4961Z" fill="#531484"/>
<path d="M183.992 46.0088H172.5V57.5213H183.992V46.0088Z" fill="#531484"/>
<path d="M183.992 34.4961H172.5V45.988H183.992V34.4961Z" fill="#531484"/>
<path d="M172.499 57.501H161.007V68.9929H172.499V57.501Z" fill="#531484"/>
<path d="M172.499 46.0088H161.007V57.5213H172.499V46.0088Z" fill="#531484"/>
<path d="M172.499 34.4961H161.007V45.988H172.499V34.4961Z" fill="#531484"/>
<path d="M160.988 91.9971H149.496V103.51H160.988V91.9971Z" fill="#531484"/>
<path d="M160.988 57.501H149.496V68.9929H160.988V57.501Z" fill="#531484"/>
<path d="M160.988 46.0088H149.496V57.5213H160.988V46.0088Z" fill="#531484"/>
<path d="M160.988 34.4961H149.496V45.988H160.988V34.4961Z" fill="#531484"/>
<path d="M149.516 91.9971H138.003V103.51H149.516V91.9971Z" fill="#531484"/>
<path d="M149.516 80.5049H138.003V91.9968H149.516V80.5049Z" fill="#531484"/>
<path d="M149.516 57.501H138.003V68.9929H149.516V57.501Z" fill="#531484"/>
<path d="M149.516 46.0088H138.003V57.5213H149.516V46.0088Z" fill="#531484"/>
<path d="M137.982 91.9971H126.49V103.51H137.982V91.9971Z" fill="#531484"/>
<path d="M137.982 80.5049H126.49V91.9968H137.982V80.5049Z" fill="#531484"/>
<path d="M137.982 68.9922H126.49V80.4841H137.982V68.9922Z" fill="#531484"/>
<path d="M137.982 57.501H126.49V68.9929H137.982V57.501Z" fill="#531484"/>
<path d="M137.982 46.0088H126.49V57.5213H137.982V46.0088Z" fill="#531484"/>
<path d="M126.492 80.5049H115V91.9968H126.492V80.5049Z" fill="#531484"/>
<path d="M126.492 68.9922H115V80.4841H126.492V68.9922Z" fill="#531484"/>
<path d="M126.492 57.501H115V68.9929H126.492V57.501Z" fill="#531484"/>
<path d="M114.999 80.5049H103.507V91.9968H114.999V80.5049Z" fill="#531484"/>
<path d="M114.999 68.9922H103.507V80.4841H114.999V68.9922Z" fill="#531484"/>
<path d="M114.999 57.501H103.507V68.9929H114.999V57.501Z" fill="#531484"/>
<path d="M252.985 115.001H241.493V126.493H252.985V115.001Z" fill="#232323"/>
<path d="M252.985 126.493H241.493V137.985H252.985V126.493Z" fill="#232323"/>
<path d="M241.513 126.493H230V137.985H241.513V126.493Z" fill="#232323"/>
<path d="M241.513 115.001H230V126.493H241.513V115.001Z" fill="#232323"/>
<path d="M241.513 103.51H230V115.002H241.513V103.51Z" fill="#232323"/>
<path d="M229.981 115.001H218.489V126.493H229.981V115.001Z" fill="#232323"/>
<path d="M229.981 103.51H218.489V115.002H229.981V103.51Z" fill="#232323"/>
<path d="M218.488 115.001H206.997V126.493H218.488V115.001Z" fill="#232323"/>
<path d="M218.488 103.51H206.997V115.002H218.488V103.51Z" fill="#232323"/>
<path d="M206.996 103.51H195.504V115.002H206.996V103.51Z" fill="#232323"/>
<path d="M206.996 115.001H195.504V126.493H206.996V115.001Z" fill="#232323"/>
<path d="M206.996 126.493H195.504V137.985H206.996V126.493Z" fill="#232323"/>
<path d="M206.996 138.006H195.504V149.518H206.996V138.006Z" fill="#232323"/>
<path d="M195.505 149.497H183.993V160.989H195.505V149.497Z" fill="#232323"/>
<path d="M333.509 172.502H321.997V183.994H333.509V172.502Z" fill="#812DA5"/>
<path d="M333.509 103.51H321.997V115.002H333.509V103.51Z" fill="#812DA5"/>
<path d="M321.996 183.994H310.504V195.507H321.996V183.994Z" fill="#812DA5"/>
<path d="M321.996 115.001H310.504V126.493H321.996V115.001Z" fill="#812DA5"/>
<path d="M310.485 195.507H298.993V206.999H310.485V195.507Z" fill="#812DA5"/>
<path d="M310.485 126.493H298.993V137.985H310.485V126.493Z" fill="#812DA5"/>
<path d="M310.485 103.51H298.993V115.002H310.485V103.51Z" fill="#812DA5"/>
<path d="M298.992 206.998H287.5V218.49H298.992V206.998Z" fill="#812DA5"/>
<path d="M298.992 195.507H287.5V206.999H298.992V195.507Z" fill="#812DA5"/>
<path d="M298.992 172.502H287.5V183.994H298.992V172.502Z" fill="#812DA5"/>
<path d="M298.992 161.01H287.5V172.502H298.992V161.01Z" fill="#812DA5"/>
<path d="M298.992 149.497H287.5V160.989H298.992V149.497Z" fill="#812DA5"/>
<path d="M298.992 138.006H287.5V149.518H298.992V138.006Z" fill="#812DA5"/>
<path d="M298.992 115.001H287.5V126.493H298.992V115.001Z" fill="#812DA5"/>
<path d="M298.992 103.51H287.5V115.002H298.992V103.51Z" fill="#812DA5"/>
<path d="M298.992 68.9922H287.5V80.4841H298.992V68.9922Z" fill="#812DA5"/>
<path d="M287.502 206.998H275.989V218.49H287.502V206.998Z" fill="#812DA5"/>
<path d="M287.502 195.507H275.989V206.999H287.502V195.507Z" fill="#812DA5"/>
<path d="M287.502 183.994H275.989V195.507H287.502V183.994Z" fill="#812DA5"/>
<path d="M287.502 161.01H275.989V172.502H287.502V161.01Z" fill="#812DA5"/>
<path d="M287.502 138.006H275.989V149.518H287.502V138.006Z" fill="#812DA5"/>
<path d="M287.502 115.001H275.989V126.493H287.502V115.001Z" fill="#812DA5"/>
<path d="M287.502 103.51H275.989V115.002H287.502V103.51Z" fill="#812DA5"/>
<path d="M287.502 80.5049H275.989V91.9968H287.502V80.5049Z" fill="#812DA5"/>
<path d="M275.988 206.998H264.497V218.49H275.988V206.998Z" fill="#812DA5"/>
<path d="M275.988 183.994H264.497V195.507H275.988V183.994Z" fill="#812DA5"/>
<path d="M275.988 161.01H264.497V172.502H275.988V161.01Z" fill="#812DA5"/>
<path d="M275.988 149.497H264.497V160.989H275.988V149.497Z" fill="#812DA5"/>
<path d="M275.988 138.006H264.497V149.518H275.988V138.006Z" fill="#812DA5"/>
<path d="M275.988 103.51H264.497V115.002H275.988V103.51Z" fill="#812DA5"/>
<path d="M275.988 80.5049H264.497V91.9968H275.988V80.5049Z" fill="#812DA5"/>
<path d="M264.496 206.998H253.004V218.49H264.496V206.998Z" fill="#812DA5"/>
<path d="M264.496 183.994H253.004V195.507H264.496V183.994Z" fill="#812DA5"/>
<path d="M264.496 172.502H253.004V183.994H264.496V172.502Z" fill="#812DA5"/>
<path d="M264.496 149.497H253.004V160.989H264.496V149.497Z" fill="#812DA5"/>
<path d="M264.496 126.493H253.004V137.985H264.496V126.493Z" fill="#812DA5"/>
<path d="M264.496 115.001H253.004V126.493H264.496V115.001Z" fill="#812DA5"/>
<path d="M264.496 103.51H253.004V115.002H264.496V103.51Z" fill="#812DA5"/>
<path d="M264.496 91.9971H253.004V103.51H264.496V91.9971Z" fill="#812DA5"/>
<path d="M252.985 206.998H241.493V218.49H252.985V206.998Z" fill="#812DA5"/>
<path d="M252.985 195.507H241.493V206.999H252.985V195.507Z" fill="#812DA5"/>
<path d="M252.985 172.502H241.493V183.994H252.985V172.502Z" fill="#812DA5"/>
<path d="M252.985 161.01H241.493V172.502H252.985V161.01Z" fill="#812DA5"/>
<path d="M252.985 149.497H241.493V160.989H252.985V149.497Z" fill="#812DA5"/>
<path d="M252.985 138.006H241.493V149.518H252.985V138.006Z" fill="#812DA5"/>
<path d="M252.985 103.51H241.493V115.002H252.985V103.51Z" fill="#812DA5"/>
<path d="M252.985 80.5049H241.493V91.9968H252.985V80.5049Z" fill="#812DA5"/>
<path d="M252.985 68.9922H241.493V80.4841H252.985V68.9922Z" fill="#812DA5"/>
<path d="M241.513 161.01H230V172.502H241.513V161.01Z" fill="#812DA5"/>
<path d="M241.513 138.006H230V149.518H241.513V138.006Z" fill="#812DA5"/>
<path d="M241.513 91.9971H230V103.51H241.513V91.9971Z" fill="#812DA5"/>
<path d="M241.513 68.9922H230V80.4841H241.513V68.9922Z" fill="#812DA5"/>
<path d="M241.513 57.501H230V68.9929H241.513V57.501Z" fill="#812DA5"/>
<path d="M229.981 91.9971H218.489V103.51H229.981V91.9971Z" fill="#812DA5"/>
<path d="M206.996 34.4961H195.504V45.988H206.996V34.4961Z" fill="#812DA5"/>
<path d="M195.505 46.0088H183.993V57.5213H195.505V46.0088Z" fill="#812DA5"/>
<path d="M195.505 34.4961H183.993V45.988H195.505V34.4961Z" fill="#812DA5"/>
<path d="M183.992 57.501H172.5V68.9929H183.992V57.501Z" fill="#812DA5"/>
<path d="M183.992 34.4961H172.5V45.988H183.992V34.4961Z" fill="#812DA5"/>
<path d="M172.502 126.493H161.01V137.985H172.502V126.493Z" fill="white"/>
<path d="M172.502 57.501H161.01V68.9929H172.502V57.501Z" fill="#812DA5"/>
<path d="M172.502 34.4961H161.01V45.988H172.502V34.4961Z" fill="#812DA5"/>
<path d="M160.988 115.001H149.497V126.493H160.988V115.001Z" fill="white"/>
<path d="M160.988 91.9971H149.497V103.51H160.988V91.9971Z" fill="#812DA5"/>
<path d="M160.988 34.4961H149.497V45.988H160.988V34.4961Z" fill="#812DA5"/>
<path d="M149.516 126.493H138.004V137.985H149.516V126.493Z" fill="white"/>
<path d="M149.516 80.5049H138.004V91.9968H149.516V80.5049Z" fill="#812DA5"/>
<path d="M149.516 46.0088H138.004V57.5213H149.516V46.0088Z" fill="#812DA5"/>
<path d="M137.985 115.001H126.493V126.493H137.985V115.001Z" fill="white"/>
<path d="M137.985 68.9922H126.493V80.4841H137.985V68.9922Z" fill="#812DA5"/>
<path d="M137.985 46.0088H126.493V57.5213H137.985V46.0088Z" fill="#812DA5"/>
<path d="M126.492 57.501H115V68.9929H126.492V57.501Z" fill="#812DA5"/>
<path d="M115.002 138.006H103.51V149.518H115.002V138.006Z" fill="#232323"/>
<path d="M115.002 126.493H103.51V137.985H115.002V126.493Z" fill="#232323"/>
<path d="M115.002 80.5049H103.51V91.9968H115.002V80.5049Z" fill="#812DA5"/>
<path d="M115.002 68.9922H103.51V80.4841H115.002V68.9922Z" fill="#812DA5"/>
<path d="M115.002 57.501H103.51V68.9929H115.002V57.501Z" fill="#812DA5"/>
<path d="M103.509 149.497H91.9966V160.989H103.509V149.497Z" fill="#232323"/>
<path d="M80.4849 126.493H68.9932V137.985H80.4849V126.493Z" fill="white"/>
<path d="M68.9918 115.001H57.5V126.493H68.9918V115.001Z" fill="white"/>
<path d="M57.5221 126.493H46.0098V137.985H57.5221V126.493Z" fill="white"/>
<path d="M45.9883 115.001H34.4966V126.493H45.9883V115.001Z" fill="white"/>
<path d="M126.492 0H115V11.5125H126.492V0Z" fill="#C40F06"/>
<path d="M126.492 11.5127H115V23.0046H126.492V11.5127Z" fill="#C40F06"/>
<path d="M126.492 23.0049H115V34.4968H126.492V23.0049Z" fill="#C40F06"/>
<path d="M137.984 23.0049H126.493V34.4968H137.984V23.0049Z" fill="#E0C70E"/>
<path d="M126.492 34.4961H115V45.988H126.492V34.4961Z" fill="#E0C70E"/>
<path d="M137.984 34.4961H126.493V45.988H137.984V34.4961Z" fill="#3FAA00"/>
<path d="M126.492 46.0088H115V57.5213H126.492V46.0088Z" fill="#3FAA00"/>
<path d="M137.984 46.0088H126.493V57.5213H137.984V46.0088Z" fill="#00B6C4"/>
<path d="M126.492 57.501H115V68.9929H126.492V57.501Z" fill="#00B6C4"/>
<path d="M137.984 57.501H126.493V68.9929H137.984V57.501Z" fill="#0054CE"/>
<path d="M126.492 68.9922H115V80.4841H126.492V68.9922Z" fill="#0054CE"/>
<path d="M137.984 68.9922H126.493V80.4841H137.984V68.9922Z" fill="#6400CE"/>
</g>
<defs>
<clipPath id="clip0_2040_6930">
<rect width="345" height="322" fill="white"/>
</clipPath>
</defs>
</svg>
